<?xml version="1.0" encoding="UTF-8" standalone="no"?>
<!-- Created with Inkscape (http://www.inkscape.org/) -->

<svg
   version="1.1"
   id="svg1"
   width="592"
   height="654.71997"
   viewBox="0 0 592 654.71997"
   xmlns="http://www.w3.org/2000/svg"
   xmlns:svg="http://www.w3.org/2000/svg">
  <defs
     id="defs1">
    <clipPath
       clipPathUnits="userSpaceOnUse"
       id="clipPath2">
      <path
         d="M 0,0 H 1847.998 V 2045.9961 H 0 Z"
         transform="scale(0.31999999)"
         clip-rule="evenodd"
         id="path2" />
    </clipPath>
    <clipPath
       clipPathUnits="userSpaceOnUse"
       id="clipPath4">
      <path
         d="M 78.125,87.5 H 1768.75 V 1959.375 H 78.125 Z"
         transform="matrix(0.36572146,0,0,0.36572146,-35.220911,-274.64351)"
         clip-rule="evenodd"
         id="path4" />
    </clipPath>
    <clipPath
       clipPathUnits="userSpaceOnUse"
       id="clipPath6">
      <path
         d="M 78.125,87.5 H 1768.75 V 1959.375 H 78.125 Z"
         transform="matrix(0.36572146,0,0,0.36572146,-35.220911,-274.64351)"
         clip-rule="evenodd"
         id="path6" />
    </clipPath>
    <clipPath
       clipPathUnits="userSpaceOnUse"
       id="clipPath8">
      <path
         d="M 78.125,87.5 H 1768.75 V 1959.375 H 78.125 Z"
         transform="matrix(0.36572146,0,0,0.36572146,-35.220911,-274.64351)"
         clip-rule="evenodd"
         id="path8" />
    </clipPath>
    <clipPath
       clipPathUnits="userSpaceOnUse"
       id="clipPath10">
      <path
         d="M 78.125,87.5 H 1768.75 V 1959.375 H 78.125 Z"
         transform="matrix(0.36572146,0,0,0.36572146,-34.72091,-274.1435)"
         clip-rule="evenodd"
         id="path10" />
    </clipPath>
    <clipPath
       clipPathUnits="userSpaceOnUse"
       id="clipPath12">
      <path
         d="M 78.125,87.5 H 1768.75 V 1959.375 H 78.125 Z"
         transform="matrix(0.36572146,0,0,0.36572146,-34.72091,-274.1435)"
         clip-rule="evenodd"
         id="path12" />
    </clipPath>
    <clipPath
       clipPathUnits="userSpaceOnUse"
       id="clipPath14">
      <path
         d="M 78.125,87.5 H 1768.75 V 1959.375 H 78.125 Z"
         transform="matrix(0.36572146,0,0,0.36572146,-34.72091,-274.1435)"
         clip-rule="evenodd"
         id="path14" />
    </clipPath>
    <clipPath
       clipPathUnits="userSpaceOnUse"
       id="clipPath16">
      <path
         d="M 78.125,87.5 H 1768.75 V 1959.375 H 78.125 Z"
         transform="matrix(0.36572146,0,0,0.36572146,-34.72091,-274.1435)"
         clip-rule="evenodd"
         id="path16" />
    </clipPath>
    <clipPath
       clipPathUnits="userSpaceOnUse"
       id="clipPath18">
      <path
         d="M 78.125,87.5 H 1768.75 V 1959.375 H 78.125 Z"
         transform="matrix(0.36572146,0,0,0.36572146,-34.72091,-274.1435)"
         clip-rule="evenodd"
         id="path18" />
    </clipPath>
    <clipPath
       clipPathUnits="userSpaceOnUse"
       id="clipPath20">
      <path
         d="M 78.125,87.5 H 1768.75 V 1959.375 H 78.125 Z"
         transform="matrix(0.36572146,0,0,0.36572146,-34.72091,-274.1435)"
         clip-rule="evenodd"
         id="path20" />
    </clipPath>
    <clipPath
       clipPathUnits="userSpaceOnUse"
       id="clipPath22">
      <path
         d="M 78.125,87.5 H 1768.75 V 1959.375 H 78.125 Z"
         transform="matrix(0.36572146,0,0,0.36572146,-35.220911,-274.64351)"
         clip-rule="evenodd"
         id="path22" />
    </clipPath>
    <clipPath
       clipPathUnits="userSpaceOnUse"
       id="clipPath24">
      <path
         d="M 78.125,87.5 H 1768.75 V 1959.375 H 78.125 Z"
         transform="matrix(0.36572146,0,0,0.36572146,-34.72091,-274.1435)"
         clip-rule="evenodd"
         id="path24" />
    </clipPath>
    <clipPath
       clipPathUnits="userSpaceOnUse"
       id="clipPath26">
      <path
         d="M 78.125,87.5 H 1768.75 V 1959.375 H 78.125 Z"
         transform="matrix(0.36572146,0,0,0.36572146,-34.72091,-274.1435)"
         clip-rule="evenodd"
         id="path26" />
    </clipPath>
    <clipPath
       clipPathUnits="userSpaceOnUse"
       id="clipPath28">
      <path
         d="M 78.125,87.5 H 1768.75 V 1959.375 H 78.125 Z"
         transform="matrix(0.36572146,0,0,0.36572146,-35.220911,-274.64351)"
         clip-rule="evenodd"
         id="path28" />
    </clipPath>
    <clipPath
       clipPathUnits="userSpaceOnUse"
       id="clipPath30">
      <path
         d="M 78.125,87.5 H 1768.75 V 1959.375 H 78.125 Z"
         transform="matrix(0.36572146,0,0,0.36572146,-34.72091,-274.1435)"
         clip-rule="evenodd"
         id="path30" />
    </clipPath>
    <clipPath
       clipPathUnits="userSpaceOnUse"
       id="clipPath32">
      <path
         d="M 78.125,87.5 H 1768.75 V 1959.375 H 78.125 Z"
         transform="matrix(0.36572146,0,0,0.36572146,-34.72091,-274.1435)"
         clip-rule="evenodd"
         id="path32" />
    </clipPath>
    <clipPath
       clipPathUnits="userSpaceOnUse"
       id="clipPath34">
      <path
         d="M 78.125,87.5 H 1768.75 V 1959.375 H 78.125 Z"
         transform="matrix(0.36572146,0,0,0.36572146,-34.72091,-274.1435)"
         clip-rule="evenodd"
         id="path34" />
    </clipPath>
    <clipPath
       clipPathUnits="userSpaceOnUse"
       id="clipPath36">
      <path
         d="M 78.125,87.5 H 1768.75 V 1959.375 H 78.125 Z"
         transform="matrix(0.36572146,0,0,0.36572146,-34.72091,-274.1435)"
         clip-rule="evenodd"
         id="path36" />
    </clipPath>
    <clipPath
       clipPathUnits="userSpaceOnUse"
       id="clipPath38">
      <path
         d="M 78.125,87.5 H 1768.75 V 1959.375 H 78.125 Z"
         transform="matrix(0.36572146,0,0,0.36572146,-34.72091,-274.1435)"
         clip-rule="evenodd"
         id="path38" />
    </clipPath>
    <clipPath
       clipPathUnits="userSpaceOnUse"
       id="clipPath40">
      <path
         d="M 78.125,87.5 H 1768.75 V 1959.375 H 78.125 Z"
         transform="matrix(0.36572146,0,0,0.36572146,-34.72091,-274.1435)"
         clip-rule="evenodd"
         id="path40" />
    </clipPath>
    <clipPath
       clipPathUnits="userSpaceOnUse"
       id="clipPath42">
      <path
         d="M 78.125,87.5 H 1768.75 V 1959.375 H 78.125 Z"
         transform="matrix(0.36572146,0,0,0.36572146,-35.220911,-274.64351)"
         clip-rule="evenodd"
         id="path42" />
    </clipPath>
    <clipPath
       clipPathUnits="userSpaceOnUse"
       id="clipPath44">
      <path
         d="M 78.125,87.5 H 1768.75 V 1959.375 H 78.125 Z"
         transform="matrix(0.36572146,0,0,0.36572146,-34.72091,-274.1435)"
         clip-rule="evenodd"
         id="path44" />
    </clipPath>
    <clipPath
       clipPathUnits="userSpaceOnUse"
       id="clipPath46">
      <path
         d="M 78.125,87.5 H 1768.75 V 1959.375 H 78.125 Z"
         transform="matrix(0.36572146,0,0,0.36572146,-34.72091,-274.1435)"
         clip-rule="evenodd"
         id="path46" />
    </clipPath>
    <clipPath
       clipPathUnits="userSpaceOnUse"
       id="clipPath48">
      <path
         d="M 78.125,87.5 H 1768.75 V 1959.375 H 78.125 Z"
         transform="matrix(0.36572146,0,0,0.36572146,-34.72091,-274.1435)"
         clip-rule="evenodd"
         id="path48" />
    </clipPath>
    <clipPath
       clipPathUnits="userSpaceOnUse"
       id="clipPath50">
      <path
         d="M 78.125,87.5 H 1768.75 V 1959.375 H 78.125 Z"
         transform="matrix(0.36572146,0,0,0.36572146,-34.72091,-274.1435)"
         clip-rule="evenodd"
         id="path50" />
    </clipPath>
    <clipPath
       clipPathUnits="userSpaceOnUse"
       id="clipPath52">
      <path
         d="M 78.125,87.5 H 1768.75 V 1959.375 H 78.125 Z"
         transform="matrix(0.36572146,0,0,0.36572146,-35.220911,-274.64351)"
         clip-rule="evenodd"
         id="path52" />
    </clipPath>
    <clipPath
       clipPathUnits="userSpaceOnUse"
       id="clipPath54">
      <path
         d="M 78.125,87.5 H 1768.75 V 1959.375 H 78.125 Z"
         transform="matrix(0.36572146,0,0,0.36572146,-34.72091,-274.1435)"
         clip-rule="evenodd"
         id="path54" />
    </clipPath>
    <clipPath
       clipPathUnits="userSpaceOnUse"
       id="clipPath56">
      <path
         d="M 78.125,87.5 H 1768.75 V 1959.375 H 78.125 Z"
         transform="matrix(0.36572146,0,0,0.36572146,-34.72091,-274.1435)"
         clip-rule="evenodd"
         id="path56" />
    </clipPath>
    <clipPath
       clipPathUnits="userSpaceOnUse"
       id="clipPath58">
      <path
         d="M 78.125,87.5 H 1768.75 V 1959.375 H 78.125 Z"
         transform="matrix(0.36572146,0,0,0.36572146,-35.220911,-274.64351)"
         clip-rule="evenodd"
         id="path58" />
    </clipPath>
    <clipPath
       clipPathUnits="userSpaceOnUse"
       id="clipPath60">
      <path
         d="M 78.125,87.5 H 1768.75 V 1959.375 H 78.125 Z"
         transform="matrix(0.36572146,0,0,0.36572146,-34.72091,-274.1435)"
         clip-rule="evenodd"
         id="path60" />
    </clipPath>
    <clipPath
       clipPathUnits="userSpaceOnUse"
       id="clipPath62">
      <path
         d="M 78.125,87.5 H 1768.75 V 1959.375 H 78.125 Z"
         transform="matrix(0.36572146,0,0,0.36572146,-34.72091,-274.1435)"
         clip-rule="evenodd"
         id="path62" />
    </clipPath>
    <clipPath
       clipPathUnits="userSpaceOnUse"
       id="clipPath64">
      <path
         d="M 78.125,87.5 H 1768.75 V 1959.375 H 78.125 Z"
         transform="matrix(0.36572146,0,0,0.36572146,-34.72091,-274.1435)"
         clip-rule="evenodd"
         id="path64" />
    </clipPath>
    <clipPath
       clipPathUnits="userSpaceOnUse"
       id="clipPath66">
      <path
         d="M 78.125,87.5 H 1768.75 V 1959.375 H 78.125 Z"
         transform="matrix(0.36572146,0,0,0.36572146,-34.72091,-274.1435)"
         clip-rule="evenodd"
         id="path66" />
    </clipPath>
    <clipPath
       clipPathUnits="userSpaceOnUse"
       id="clipPath68">
      <path
         d="M 78.125,87.5 H 1768.75 V 1959.375 H 78.125 Z"
         transform="matrix(0.36572146,0,0,0.36572146,-35.220911,-274.64351)"
         clip-rule="evenodd"
         id="path68" />
    </clipPath>
    <clipPath
       clipPathUnits="userSpaceOnUse"
       id="clipPath70">
      <path
         d="M 78.125,87.5 H 1768.75 V 1959.375 H 78.125 Z"
         transform="matrix(0.36572146,0,0,0.36572146,-34.72091,-274.1435)"
         clip-rule="evenodd"
         id="path70" />
    </clipPath>
    <clipPath
       clipPathUnits="userSpaceOnUse"
       id="clipPath72">
      <path
         d="M 78.125,87.5 H 1768.75 V 1959.375 H 78.125 Z"
         transform="matrix(0.36572146,0,0,0.36572146,-34.72091,-274.1435)"
         clip-rule="evenodd"
         id="path72" />
    </clipPath>
    <clipPath
       clipPathUnits="userSpaceOnUse"
       id="clipPath74">
      <path
         d="M 78.125,87.5 H 1768.75 V 1959.375 H 78.125 Z"
         transform="matrix(0.36572146,0,0,0.36572146,-35.220911,-274.64351)"
         clip-rule="evenodd"
         id="path74" />
    </clipPath>
    <clipPath
       clipPathUnits="userSpaceOnUse"
       id="clipPath76">
      <path
         d="M 78.125,87.5 H 1768.75 V 1959.375 H 78.125 Z"
         transform="matrix(0.36572146,0,0,0.36572146,-35.220911,-274.64351)"
         clip-rule="evenodd"
         id="path76" />
    </clipPath>
    <clipPath
       clipPathUnits="userSpaceOnUse"
       id="clipPath78">
      <path
         d="M 78.125,87.5 H 1768.75 V 1959.375 H 78.125 Z"
         transform="matrix(0.36572146,0,0,0.36572146,-35.220911,-274.64351)"
         clip-rule="evenodd"
         id="path78" />
    </clipPath>
    <clipPath
       clipPathUnits="userSpaceOnUse"
       id="clipPath80">
      <path
         d="M 78.125,87.5 H 1768.75 V 1959.375 H 78.125 Z"
         transform="matrix(0.36572146,0,0,0.36572146,-34.72091,-274.1435)"
         clip-rule="evenodd"
         id="path80" />
    </clipPath>
    <clipPath
       clipPathUnits="userSpaceOnUse"
       id="clipPath82">
      <path
         d="M 78.125,87.5 H 1768.75 V 1959.375 H 78.125 Z"
         transform="matrix(0.36572146,0,0,0.36572146,-34.72091,-274.1435)"
         clip-rule="evenodd"
         id="path82" />
    </clipPath>
    <clipPath
       clipPathUnits="userSpaceOnUse"
       id="clipPath84">
      <path
         d="M 78.125,87.5 H 1768.75 V 1959.375 H 78.125 Z"
         transform="matrix(0.36572146,0,0,0.36572146,-35.220911,-274.64351)"
         clip-rule="evenodd"
         id="path84" />
    </clipPath>
    <clipPath
       clipPathUnits="userSpaceOnUse"
       id="clipPath87">
      <path
         d="M 78.125,87.5 H 1768.75 V 1959.375 H 78.125 Z"
         transform="matrix(0.36572146,0,0,0.36572146,-34.72091,-274.1435)"
         clip-rule="evenodd"
         id="path87" />
    </clipPath>
    <clipPath
       clipPathUnits="userSpaceOnUse"
       id="clipPath89">
      <path
         d="M 78.125,87.5 H 1768.75 V 1959.375 H 78.125 Z"
         transform="matrix(0.36572146,0,0,0.36572146,-34.72091,-274.1435)"
         clip-rule="evenodd"
         id="path89" />
    </clipPath>
    <clipPath
       clipPathUnits="userSpaceOnUse"
       id="clipPath91">
      <path
         d="M 78.125,87.5 H 1768.75 V 1959.375 H 78.125 Z"
         transform="matrix(0.36572146,0,0,0.36572146,-34.72091,-274.1435)"
         clip-rule="evenodd"
         id="path91" />
    </clipPath>
    <clipPath
       clipPathUnits="userSpaceOnUse"
       id="clipPath93">
      <path
         d="M 78.125,87.5 H 1768.75 V 1959.375 H 78.125 Z"
         transform="matrix(0.36572146,0,0,0.36572146,-34.72091,-274.1435)"
         clip-rule="evenodd"
         id="path93" />
    </clipPath>
    <clipPath
       clipPathUnits="userSpaceOnUse"
       id="clipPath99">
      <path
         d="M 78.125,87.5 H 1768.75 V 1959.375 H 78.125 Z"
         transform="matrix(0.36572146,0,0,0.36572146,-34.72091,-274.1435)"
         clip-rule="evenodd"
         id="path99" />
    </clipPath>
    <clipPath
       clipPathUnits="userSpaceOnUse"
       id="clipPath101">
      <path
         d="M 78.125,87.5 H 1768.75 V 1959.375 H 78.125 Z"
         transform="matrix(0.36572146,0,0,0.36572146,-34.72091,-274.1435)"
         clip-rule="evenodd"
         id="path101" />
    </clipPath>
    <clipPath
       clipPathUnits="userSpaceOnUse"
       id="clipPath103">
      <path
         d="M 78.125,87.5 H 1768.75 V 1959.375 H 78.125 Z"
         transform="matrix(0.36572146,0,0,0.36572146,-34.72091,-274.1435)"
         clip-rule="evenodd"
         id="path103" />
    </clipPath>
    <clipPath
       clipPathUnits="userSpaceOnUse"
       id="clipPath105">
      <path
         d="M 78.125,87.5 H 1768.75 V 1959.375 H 78.125 Z"
         transform="matrix(0.36572146,0,0,0.36572146,-34.72091,-274.1435)"
         clip-rule="evenodd"
         id="path105" />
    </clipPath>
    <clipPath
       clipPathUnits="userSpaceOnUse"
       id="clipPath107">
      <path
         d="M 78.125,87.5 H 1768.75 V 1959.375 H 78.125 Z"
         transform="matrix(0.36572146,0,0,0.36572146,-34.72091,-274.1435)"
         clip-rule="evenodd"
         id="path107" />
    </clipPath>
    <clipPath
       clipPathUnits="userSpaceOnUse"
       id="clipPath109">
      <path
         d="M 78.125,87.5 H 1768.75 V 1959.375 H 78.125 Z"
         transform="matrix(0.36572146,0,0,0.36572146,-34.72091,-274.1435)"
         clip-rule="evenodd"
         id="path109" />
    </clipPath>
    <clipPath
       clipPathUnits="userSpaceOnUse"
       id="clipPath111">
      <path
         d="M 78.125,87.5 H 1768.75 V 1959.375 H 78.125 Z"
         transform="matrix(0.36572146,0,0,0.36572146,-34.72091,-274.1435)"
         clip-rule="evenodd"
         id="path111" />
    </clipPath>
    <clipPath
       clipPathUnits="userSpaceOnUse"
       id="clipPath113">
      <path
         d="M 78.125,87.5 H 1768.75 V 1959.375 H 78.125 Z"
         transform="matrix(0.36572146,0,0,0.36572146,-34.72091,-274.1435)"
         clip-rule="evenodd"
         id="path113" />
    </clipPath>
    <clipPath
       clipPathUnits="userSpaceOnUse"
       id="clipPath115">
      <path
         d="M 78.125,87.5 H 1768.75 V 1959.375 H 78.125 Z"
         transform="matrix(0.36572146,0,0,0.36572146,-34.72091,-274.1435)"
         clip-rule="evenodd"
         id="path115" />
    </clipPath>
    <clipPath
       clipPathUnits="userSpaceOnUse"
       id="clipPath117">
      <path
         d="M 78.125,87.5 H 1768.75 V 1959.375 H 78.125 Z"
         transform="matrix(0.36572146,0,0,0.36572146,-34.72091,-274.1435)"
         clip-rule="evenodd"
         id="path117" />
    </clipPath>
  </defs>
  <g
     id="g1">
    <path
       id="path1"
       d="M 0,0 H 591 V 655 H 0 Z"
       style="fill:#ffffff;fill-opacity:1;fill-rule:nonzero;stroke:none"
       clip-path="url(#clipPath2)" />
    <path
       id="path3"
       d="M 160,-170 H 610 V 440 H 160 Z"
       style="fill:#f82ebe;fill-opacity:1;fill-rule:nonzero;stroke:none"
       transform="matrix(0.87498281,0,0,0.87498281,30.817692,240.30835)"
       clip-path="url(#clipPath4)" />
    <g
       id="g4">
      <g
         id="g5" />
      <text
         id="text5"
         xml:space="preserve"
         transform="matrix(0.87498281,0,0,0.87498281,172.12741,119.12322)"><tspan
           id="tspan5"
           style="font-variant:normal;font-weight:normal;font-size:17px;font-family:Arial;writing-mode:lr-tb;fill:#000000;fill-opacity:1;fill-rule:nonzero;stroke:none"
           x="0"
           y="0"> PJDL_wrap</tspan></text>
    </g>
    <path
       id="path5"
       d="m 183,-114 h 210 v 90 H 183 Z"
       style="fill:#910569;fill-opacity:1;fill-rule:nonzero;stroke:none"
       transform="matrix(0.87498281,0,0,0.87498281,30.817692,240.30835)"
       clip-path="url(#clipPath6)" />
    <g
       id="g6">
      <g
         id="g7" />
      <text
         id="text7"
         xml:space="preserve"
         transform="matrix(0.87498281,0,0,0.87498281,192.25202,159.37243)"><tspan
           id="tspan7"
           style="font-variant:normal;font-weight:normal;font-size:16px;font-family:Arial;writing-mode:lr-tb;fill:#ffffff;fill-opacity:1;fill-rule:nonzero;stroke:none"
           x="0"
           y="0"> PJDL</tspan></text>
    </g>
    <path
       id="path7"
       d="M 183,40 H 523 V 419 H 183 Z"
       style="fill:#910569;fill-opacity:1;fill-rule:nonzero;stroke:none"
       transform="matrix(0.87498281,0,0,0.87498281,30.817692,240.30835)"
       clip-path="url(#clipPath8)" />
    <g
       id="g8">
      <g
         id="g9" />
      <text
         id="text9"
         xml:space="preserve"
         transform="matrix(0.87498281,0,0,0.87498281,192.25202,301.11965)"><tspan
           id="tspan9"
           style="font-variant:normal;font-weight:normal;font-size:15px;font-family:Arial;writing-mode:lr-tb;fill:#ffffff;fill-opacity:1;fill-rule:nonzero;stroke:none"
           x="0"
           y="0">  pjdl_Idma_wrap</tspan></text>
    </g>
    <path
       id="path9"
       d="m 413,134 v 6.75999"
       style="fill:none;stroke:#000000;stroke-width:2;stroke-linecap:butt;stroke-linejoin:miter;stroke-miterlimit:10;stroke-dasharray:none;stroke-opacity:1"
       transform="matrix(0.87498281,0,0,0.87498281,30.380199,239.87085)"
       clip-path="url(#clipPath10)" />
    <path
       id="path11"
       d="m 413,146.75999 -4,-8 4,2 4,-2 z"
       style="fill:#000000;fill-opacity:1;fill-rule:nonzero;stroke:#000000;stroke-width:2;stroke-linecap:butt;stroke-linejoin:miter;stroke-miterlimit:10;stroke-dasharray:none;stroke-opacity:1"
       transform="matrix(0.87498281,0,0,0.87498281,30.380199,239.87085)"
       clip-path="url(#clipPath12)" />
    <path
       id="path13"
       d="M 312.76001,100.26 227,100.3 130,100.18"
       style="fill:none;stroke:#000000;stroke-width:2;stroke-linecap:butt;stroke-linejoin:miter;stroke-miterlimit:10;stroke-dasharray:none;stroke-opacity:1"
       transform="matrix(0.87498281,0,0,0.87498281,30.380199,239.87085)"
       clip-path="url(#clipPath14)" />
    <path
       id="path15"
       d="m 320.76001,100.25 -7.99002,4.01 -0.01,-7.999998 8,3.989998 z"
       style="fill:#000000;fill-opacity:1;fill-rule:nonzero;stroke:#000000;stroke-width:2;stroke-linecap:butt;stroke-linejoin:miter;stroke-miterlimit:10;stroke-dasharray:none;stroke-opacity:1"
       transform="matrix(0.87498281,0,0,0.87498281,30.380199,239.87085)"
       clip-path="url(#clipPath16)" />
    <path
       id="path17"
       d="m 323,122.75 -96,0.05 -86.76,0.1"
       style="fill:none;stroke:#000000;stroke-width:2;stroke-linecap:butt;stroke-linejoin:miter;stroke-miterlimit:10;stroke-dasharray:none;stroke-opacity:1"
       transform="matrix(0.87498281,0,0,0.87498281,30.380199,239.87085)"
       clip-path="url(#clipPath18)" />
    <path
       id="path19"
       d="m 132.24,122.91 7.99,-4.01 0.01,8 z"
       style="fill:#000000;fill-opacity:1;fill-rule:nonzero;stroke:#000000;stroke-width:2;stroke-linecap:butt;stroke-linejoin:miter;stroke-miterlimit:10;stroke-dasharray:none;stroke-opacity:1"
       transform="matrix(0.87498281,0,0,0.87498281,30.380199,239.87085)"
       clip-path="url(#clipPath20)" />
    <path
       id="path21"
       d="m 323,89 h 180 v 45 H 323 Z"
       style="fill:#6d044f;fill-opacity:1;fill-rule:nonzero;stroke:none"
       transform="matrix(0.87498281,0,0,0.87498281,30.817692,240.30835)"
       clip-path="url(#clipPath22)" />
    <g
       id="g22">
      <text
         id="text22"
         xml:space="preserve"
         transform="matrix(0.87498281,0,0,0.87498281,356.43435,341.36886)"><tspan
           id="tspan22"
           style="font-variant:normal;font-weight:normal;font-size:12px;font-family:Arial;writing-mode:lr-tb;fill:#ffffff;fill-opacity:1;fill-rule:nonzero;stroke:none"
           x="0"
           dx="0 0 0 0 -0.66210902"
           y="0">IDMA Frontend</tspan></text>
    </g>
    <path
       id="path23"
       d="m 413,194 v 6.75999"
       style="fill:none;stroke:#000000;stroke-width:2;stroke-linecap:butt;stroke-linejoin:miter;stroke-miterlimit:10;stroke-dasharray:none;stroke-opacity:1"
       transform="matrix(0.87498281,0,0,0.87498281,30.380199,239.87085)"
       clip-path="url(#clipPath24)" />
    <path
       id="path25"
       d="m 413,206.75999 -4,-8 4,2 4,-2 z"
       style="fill:#000000;fill-opacity:1;fill-rule:nonzero;stroke:#000000;stroke-width:2;stroke-linecap:butt;stroke-linejoin:miter;stroke-miterlimit:10;stroke-dasharray:none;stroke-opacity:1"
       transform="matrix(0.87498281,0,0,0.87498281,30.380199,239.87085)"
       clip-path="url(#clipPath26)" />
    <path
       id="path27"
       d="m 323,149 h 180 v 45 H 323 Z"
       style="fill:#6d044f;fill-opacity:1;fill-rule:nonzero;stroke:none"
       transform="matrix(0.87498281,0,0,0.87498281,30.817692,240.30835)"
       clip-path="url(#clipPath28)" />
    <g
       id="g28">
      <text
         id="text28"
         xml:space="preserve"
         transform="matrix(0.87498281,0,0,0.87498281,360.23505,393.86783)"><tspan
           id="tspan28"
           style="font-variant:normal;font-weight:normal;font-size:12px;font-family:Arial;writing-mode:lr-tb;fill:#ffffff;fill-opacity:1;fill-rule:nonzero;stroke:none"
           x="0"
           dx="0 0 0 0 -0.66210902"
           y="0">IDMA Midend</tspan></text>
    </g>
    <path
       id="path29"
       d="M 312.76001,220.27 290,220.3 V 280 h 40 v 35 h -10 l 0.22,0.01"
       style="fill:none;stroke:#000000;stroke-width:2;stroke-linecap:butt;stroke-linejoin:miter;stroke-miterlimit:10;stroke-dasharray:none;stroke-opacity:1"
       transform="matrix(0.87498281,0,0,0.87498281,30.380199,239.87085)"
       clip-path="url(#clipPath30)" />
    <path
       id="path31"
       d="m 320.76001,220.25 -7.99002,4.02 -0.01,-8 8,3.98 z"
       style="fill:#000000;fill-opacity:1;fill-rule:nonzero;stroke:#000000;stroke-width:2;stroke-linecap:butt;stroke-linejoin:miter;stroke-miterlimit:10;stroke-dasharray:none;stroke-opacity:1"
       transform="matrix(0.87498281,0,0,0.87498281,30.380199,239.87085)"
       clip-path="url(#clipPath32)" />
    <path
       id="path33"
       d="m 312.23001,314.60999 8.19,-3.59 -0.40002,7.99002 z"
       style="fill:#000000;fill-opacity:1;fill-rule:nonzero;stroke:#000000;stroke-width:2;stroke-linecap:butt;stroke-linejoin:miter;stroke-miterlimit:10;stroke-dasharray:none;stroke-opacity:1"
       transform="matrix(0.87498281,0,0,0.87498281,30.380199,239.87085)"
       clip-path="url(#clipPath34)" />
    <path
       id="path35"
       d="M 312.76001,242.78 303,242.8 V 270 h 47 v 105 h -30 l 0.22,0.01"
       style="fill:none;stroke:#000000;stroke-width:2;stroke-linecap:butt;stroke-linejoin:miter;stroke-miterlimit:10;stroke-dasharray:none;stroke-opacity:1"
       transform="matrix(0.87498281,0,0,0.87498281,30.380199,239.87085)"
       clip-path="url(#clipPath36)" />
    <path
       id="path37"
       d="m 320.76001,242.75999 -7.99002,4.02001 -0.02,-8 8.01001,3.97999 z"
       style="fill:#000000;fill-opacity:1;fill-rule:nonzero;stroke:#000000;stroke-width:2;stroke-linecap:butt;stroke-linejoin:miter;stroke-miterlimit:10;stroke-dasharray:none;stroke-opacity:1"
       transform="matrix(0.87498281,0,0,0.87498281,30.380199,239.87085)"
       clip-path="url(#clipPath38)" />
    <path
       id="path39"
       d="m 312.23001,374.60999 8.19,-3.59 -0.40002,7.99002 z"
       style="fill:#000000;fill-opacity:1;fill-rule:nonzero;stroke:#000000;stroke-width:2;stroke-linecap:butt;stroke-linejoin:miter;stroke-miterlimit:10;stroke-dasharray:none;stroke-opacity:1"
       transform="matrix(0.87498281,0,0,0.87498281,30.380199,239.87085)"
       clip-path="url(#clipPath40)" />
    <path
       id="path41"
       d="m 323,209 h 180 v 45 H 323 Z"
       style="fill:#6d044f;fill-opacity:1;fill-rule:nonzero;stroke:none"
       transform="matrix(0.87498281,0,0,0.87498281,30.817692,240.30835)"
       clip-path="url(#clipPath42)" />
    <g
       id="g42">
      <text
         id="text42"
         xml:space="preserve"
         transform="matrix(0.87498281,0,0,0.87498281,357.02222,446.36679)"><tspan
           id="tspan42"
           style="font-variant:normal;font-weight:normal;font-size:12px;font-family:Arial;writing-mode:lr-tb;fill:#ffffff;fill-opacity:1;fill-rule:nonzero;stroke:none"
           x="0"
           dx="0 0 0 0 -0.66210902"
           y="0">IDMA Backend</tspan></text>
    </g>
    <path
       id="path43"
       d="m 276,-55.5 h 14 V -180 h 60 v -19.75999"
       style="fill:none;stroke:#000000;stroke-width:2;stroke-linecap:butt;stroke-linejoin:miter;stroke-miterlimit:10;stroke-dasharray:none;stroke-opacity:1"
       transform="matrix(0.87498281,0,0,0.87498281,30.380199,239.87085)"
       clip-path="url(#clipPath44)" />
    <path
       id="path45"
       d="m 350,-207.75999 4,8 h -8 z"
       style="fill:#000000;fill-opacity:1;fill-rule:nonzero;stroke:#000000;stroke-width:2;stroke-linecap:butt;stroke-linejoin:miter;stroke-miterlimit:10;stroke-dasharray:none;stroke-opacity:1"
       transform="matrix(0.87498281,0,0,0.87498281,30.380199,239.87085)"
       clip-path="url(#clipPath46)" />
    <path
       id="path47"
       d="m 268.63,-77.860001 1.37,-0.04 V -180 h -49 l -0.66,-19.77"
       style="fill:none;stroke:#000000;stroke-width:2;stroke-linecap:butt;stroke-linejoin:miter;stroke-miterlimit:10;stroke-dasharray:none;stroke-opacity:1"
       transform="matrix(0.87498281,0,0,0.87498281,30.380199,239.87085)"
       clip-path="url(#clipPath48)" />
    <path
       id="path49"
       d="m 220.07001,-207.77 4.26999,7.87001 -8,0.25999 z"
       style="fill:#000000;fill-opacity:1;fill-rule:nonzero;stroke:#000000;stroke-width:2;stroke-linecap:butt;stroke-linejoin:miter;stroke-miterlimit:10;stroke-dasharray:none;stroke-opacity:1"
       transform="matrix(0.87498281,0,0,0.87498281,30.380199,239.87085)"
       clip-path="url(#clipPath50)" />
    <path
       id="path51"
       d="m 195,-78 h 81 v 45 h -81 z"
       style="fill:#6d044f;fill-opacity:1;fill-rule:nonzero;stroke:none"
       transform="matrix(0.87498281,0,0,0.87498281,30.817692,240.30835)"
       clip-path="url(#clipPath52)" />
    <g
       id="g52">
      <text
         id="text52"
         xml:space="preserve"
         transform="matrix(0.87498281,0,0,0.87498281,223.60102,189.12185)"><tspan
           id="tspan52"
           style="font-variant:normal;font-weight:normal;font-size:12px;font-family:Arial;writing-mode:lr-tb;fill:#ffffff;fill-opacity:1;fill-rule:nonzero;stroke:none"
           x="0"
           y="0">PJDL</tspan></text>
    </g>
    <g
       id="g53">
      <text
         id="text53"
         xml:space="preserve"
         transform="matrix(0.87498281,0,0,0.87498281,224.17522,202.24659)"><tspan
           id="tspan53"
           style="font-variant:normal;font-weight:normal;font-size:12px;font-family:Arial;writing-mode:lr-tb;fill:#ffffff;fill-opacity:1;fill-rule:nonzero;stroke:none"
           x="0"
           y="0">Send</tspan></text>
    </g>
    <path
       id="path53"
       d="M 335.5,-33 V 0 H 590 v 374.5 h -69.76001"
       style="fill:none;stroke:#000000;stroke-width:2;stroke-linecap:butt;stroke-linejoin:miter;stroke-miterlimit:10;stroke-dasharray:none;stroke-opacity:1"
       transform="matrix(0.87498281,0,0,0.87498281,30.380199,239.87085)"
       clip-path="url(#clipPath54)" />
    <path
       id="path55"
       d="m 512.23999,374.5 8,-4 v 8 z"
       style="fill:#000000;fill-opacity:1;fill-rule:nonzero;stroke:#000000;stroke-width:2;stroke-linecap:butt;stroke-linejoin:miter;stroke-miterlimit:10;stroke-dasharray:none;stroke-opacity:1"
       transform="matrix(0.87498281,0,0,0.87498281,30.380199,239.87085)"
       clip-path="url(#clipPath56)" />
    <path
       id="path57"
       d="m 295,-78 h 81 v 45 h -81 z"
       style="fill:#6d044f;fill-opacity:1;fill-rule:nonzero;stroke:none"
       transform="matrix(0.87498281,0,0,0.87498281,30.817692,240.30835)"
       clip-path="url(#clipPath58)" />
    <g
       id="g58">
      <text
         id="text58"
         xml:space="preserve"
         transform="matrix(0.87498281,0,0,0.87498281,311.08562,189.12185)"><tspan
           id="tspan58"
           style="font-variant:normal;font-weight:normal;font-size:12px;font-family:Arial;writing-mode:lr-tb;fill:#ffffff;fill-opacity:1;fill-rule:nonzero;stroke:none"
           x="0"
           y="0">PJDL</tspan></text>
    </g>
    <g
       id="g59">
      <text
         id="text59"
         xml:space="preserve"
         transform="matrix(0.87498281,0,0,0.87498281,304.96074,202.24659)"><tspan
           id="tspan59"
           style="font-variant:normal;font-weight:normal;font-size:12px;font-family:Arial;writing-mode:lr-tb;fill:#ffffff;fill-opacity:1;fill-rule:nonzero;stroke:none"
           x="0"
           y="0">Receive</tspan></text>
    </g>
    <path
       id="path59"
       d="M 460,-124.24 V -162 -210"
       style="fill:none;stroke:#000000;stroke-width:2;stroke-linecap:butt;stroke-linejoin:miter;stroke-miterlimit:10;stroke-dasharray:none;stroke-opacity:1"
       transform="matrix(0.87498281,0,0,0.87498281,30.380199,239.87085)"
       clip-path="url(#clipPath60)" />
    <path
       id="path61"
       d="m 460,-116.24 -4,-8 h 8 z"
       style="fill:#000000;fill-opacity:1;fill-rule:nonzero;stroke:#000000;stroke-width:2;stroke-linecap:butt;stroke-linejoin:miter;stroke-miterlimit:10;stroke-dasharray:none;stroke-opacity:1"
       transform="matrix(0.87498281,0,0,0.87498281,30.380199,239.87085)"
       clip-path="url(#clipPath62)" />
    <g
       id="g62">
      <text
         id="text62"
         xml:space="preserve"
         transform="matrix(0.87498281,0,0,0.87498281,407.47045,43.874701)"><tspan
           id="tspan62"
           style="font-variant:normal;font-weight:normal;font-size:18px;font-family:Arial;writing-mode:lr-tb;fill:#000000;fill-opacity:1;fill-rule:nonzero;stroke:none"
           x="0"
           y="0">pjon_i</tspan></text>
    </g>
    <path
       id="path63"
       d="M 190.75999,300.28 166.5,300.60001 131,300"
       style="fill:none;stroke:#000000;stroke-width:2;stroke-linecap:butt;stroke-linejoin:miter;stroke-miterlimit:10;stroke-dasharray:none;stroke-opacity:1"
       transform="matrix(0.87498281,0,0,0.87498281,30.380199,239.87085)"
       clip-path="url(#clipPath64)" />
    <path
       id="path65"
       d="m 198.75999,300.17001 -7.93998,4.10999 -0.11,-8 z"
       style="fill:#000000;fill-opacity:1;fill-rule:nonzero;stroke:#000000;stroke-width:2;stroke-linecap:butt;stroke-linejoin:miter;stroke-miterlimit:10;stroke-dasharray:none;stroke-opacity:1"
       transform="matrix(0.87498281,0,0,0.87498281,30.380199,239.87085)"
       clip-path="url(#clipPath66)" />
    <path
       id="path67"
       d="m 200,292 h 110 v 45 H 200 Z"
       style="fill:#6d044f;fill-opacity:1;fill-rule:nonzero;stroke:none"
       transform="matrix(0.87498281,0,0,0.87498281,30.817692,240.30835)"
       clip-path="url(#clipPath68)" />
    <g
       id="g68">
      <text
         id="text68"
         xml:space="preserve"
         transform="matrix(0.87498281,0,0,0.87498281,222.56198,512.86549)"><tspan
           id="tspan68"
           style="font-variant:normal;font-weight:normal;font-size:12px;font-family:Arial;writing-mode:lr-tb;fill:#ffffff;fill-opacity:1;fill-rule:nonzero;stroke:none"
           x="0"
           y="0">OBI Interface</tspan></text>
      <text
         id="text69"
         xml:space="preserve"
         transform="matrix(0.87498281,0,0,0.87498281,235.68672,525.99023)"><tspan
           id="tspan69"
           style="font-variant:normal;font-weight:normal;font-size:12px;font-family:Arial;writing-mode:lr-tb;fill:#ffffff;fill-opacity:1;fill-rule:nonzero;stroke:none"
           x="0"
           y="0">adapter</tspan></text>
    </g>
    <path
       id="path69"
       d="m 412,-69 h -8.76001"
       style="fill:none;stroke:#000000;stroke-width:2;stroke-linecap:butt;stroke-linejoin:miter;stroke-miterlimit:10;stroke-dasharray:none;stroke-opacity:1"
       transform="matrix(0.87498281,0,0,0.87498281,30.380199,239.87085)"
       clip-path="url(#clipPath70)" />
    <path
       id="path71"
       d="m 395.23999,-69 8,-4 v 8 z"
       style="fill:#000000;fill-opacity:1;fill-rule:nonzero;stroke:#000000;stroke-width:2;stroke-linecap:butt;stroke-linejoin:miter;stroke-miterlimit:10;stroke-dasharray:none;stroke-opacity:1"
       transform="matrix(0.87498281,0,0,0.87498281,30.380199,239.87085)"
       clip-path="url(#clipPath72)" />
    <path
       id="path73"
       d="m 412,-114 h 111 v 90 H 412 Z"
       style="fill:#910569;fill-opacity:1;fill-rule:nonzero;stroke:none"
       transform="matrix(0.87498281,0,0,0.87498281,30.817692,240.30835)"
       clip-path="url(#clipPath74)" />
    <g
       id="g74">
      <g
         id="g75" />
      <text
         id="text75"
         xml:space="preserve"
         transform="matrix(0.87498281,0,0,0.87498281,392.62308,155.8725)"><tspan
           id="tspan75"
           style="font-variant:normal;font-weight:normal;font-size:15px;font-family:Arial;writing-mode:lr-tb;fill:#ffffff;fill-opacity:1;fill-rule:nonzero;stroke:none"
           x="0"
           y="0">  sync</tspan></text>
    </g>
    <path
       id="path75"
       d="m 201,352 h 109 v 45 H 201 Z"
       style="fill:#6d044f;fill-opacity:1;fill-rule:nonzero;stroke:none"
       transform="matrix(0.87498281,0,0,0.87498281,30.817692,240.30835)"
       clip-path="url(#clipPath76)" />
    <g
       id="g76">
      <text
         id="text76"
         xml:space="preserve"
         transform="matrix(0.87498281,0,0,0.87498281,222.99947,565.36446)"><tspan
           id="tspan76"
           style="font-variant:normal;font-weight:normal;font-size:12px;font-family:Arial;writing-mode:lr-tb;fill:#ffffff;fill-opacity:1;fill-rule:nonzero;stroke:none"
           x="0"
           y="0">OBI Interface</tspan></text>
      <text
         id="text77"
         xml:space="preserve"
         transform="matrix(0.87498281,0,0,0.87498281,236.12421,578.4892)"><tspan
           id="tspan77"
           style="font-variant:normal;font-weight:normal;font-size:12px;font-family:Arial;writing-mode:lr-tb;fill:#ffffff;fill-opacity:1;fill-rule:nonzero;stroke:none"
           x="0"
           y="0">adapter</tspan></text>
    </g>
    <path
       id="path77"
       d="m 400,352 h 110 v 45 H 400 Z"
       style="fill:#6d044f;fill-opacity:1;fill-rule:nonzero;stroke:none"
       transform="matrix(0.87498281,0,0,0.87498281,30.817692,240.30835)"
       clip-path="url(#clipPath78)" />
    <g
       id="g78">
      <text
         id="text78"
         xml:space="preserve"
         transform="matrix(0.87498281,0,0,0.87498281,384.14669,571.48934)"><tspan
           id="tspan78"
           style="font-variant:normal;font-weight:normal;font-size:12px;font-family:Arial;writing-mode:lr-tb;fill:#ffffff;fill-opacity:1;fill-rule:nonzero;stroke:none"
           x="0"
           y="0">AXI stream upsizer</tspan></text>
    </g>
    <path
       id="path79"
       d="m 510,314.5 h 60 V 20 H 235.5 v -42.76"
       style="fill:none;stroke:#000000;stroke-width:2;stroke-linecap:butt;stroke-linejoin:miter;stroke-miterlimit:10;stroke-dasharray:none;stroke-opacity:1"
       transform="matrix(0.87498281,0,0,0.87498281,30.380199,239.87085)"
       clip-path="url(#clipPath80)" />
    <path
       id="path81"
       d="m 235.5,-30.76 4,8 h -8 z"
       style="fill:#000000;fill-opacity:1;fill-rule:nonzero;stroke:#000000;stroke-width:2;stroke-linecap:butt;stroke-linejoin:miter;stroke-miterlimit:10;stroke-dasharray:none;stroke-opacity:1"
       transform="matrix(0.87498281,0,0,0.87498281,30.380199,239.87085)"
       clip-path="url(#clipPath82)" />
    <path
       id="path83"
       d="m 400,292 h 110 v 45 H 400 Z"
       style="fill:#6d044f;fill-opacity:1;fill-rule:nonzero;stroke:none"
       transform="matrix(0.87498281,0,0,0.87498281,30.817692,240.30835)"
       clip-path="url(#clipPath84)" />
    <g
       id="g84">
      <text
         id="text84"
         xml:space="preserve"
         transform="matrix(0.87498281,0,0,0.87498281,402.52133,512.86549)"><tspan
           id="tspan84"
           style="font-variant:normal;font-weight:normal;font-size:12px;font-family:Arial;writing-mode:lr-tb;fill:#ffffff;fill-opacity:1;fill-rule:nonzero;stroke:none"
           x="0"
           y="0">AXI stream</tspan></text>
      <text
         id="text85"
         xml:space="preserve"
         transform="matrix(0.87498281,0,0,0.87498281,404.85918,525.99023)"><tspan
           id="tspan85"
           style="font-variant:normal;font-weight:normal;font-size:12px;font-family:Arial;writing-mode:lr-tb;fill:#ffffff;fill-opacity:1;fill-rule:nonzero;stroke:none"
           x="0"
           y="0">downsizer</tspan></text>
    </g>
    <g
       id="g85">
      <text
         id="text86"
         xml:space="preserve"
         transform="matrix(0.87498281,0,0,0.87498281,203.59945,43.874701)"><tspan
           id="tspan86"
           style="font-variant:normal;font-weight:normal;font-size:18px;font-family:Arial;writing-mode:lr-tb;fill:#000000;fill-opacity:1;fill-rule:nonzero;stroke:none"
           x="0"
           y="0">pjon_o</tspan></text>
    </g>
    <path
       id="path86"
       d="m 458,254 0.29999,28.98001"
       style="fill:none;stroke:#000000;stroke-width:2;stroke-linecap:butt;stroke-linejoin:miter;stroke-miterlimit:10;stroke-dasharray:none;stroke-opacity:1"
       transform="matrix(0.87498281,0,0,0.87498281,30.380199,239.87085)"
       clip-path="url(#clipPath87)" />
    <path
       id="path88"
       d="m 458.39001,290.98001 -4.09002,-7.96002 8,-0.08 -3.90998,8.04001 z"
       style="fill:#000000;fill-opacity:1;fill-rule:nonzero;stroke:#000000;stroke-width:2;stroke-linecap:butt;stroke-linejoin:miter;stroke-miterlimit:10;stroke-dasharray:none;stroke-opacity:1"
       transform="matrix(0.87498281,0,0,0.87498281,30.380199,239.87085)"
       clip-path="url(#clipPath89)" />
    <path
       id="path90"
       d="M 400,374.5 H 377 V 264.10001"
       style="fill:none;stroke:#000000;stroke-width:2;stroke-linecap:butt;stroke-linejoin:miter;stroke-miterlimit:10;stroke-dasharray:none;stroke-opacity:1"
       transform="matrix(0.87498281,0,0,0.87498281,30.380199,239.87085)"
       clip-path="url(#clipPath91)" />
    <path
       id="path92"
       d="m 377,256.10001 4,8 h -8 z"
       style="fill:#000000;fill-opacity:1;fill-rule:nonzero;stroke:#000000;stroke-width:2;stroke-linecap:butt;stroke-linejoin:miter;stroke-miterlimit:10;stroke-dasharray:none;stroke-opacity:1"
       transform="matrix(0.87498281,0,0,0.87498281,30.380199,239.87085)"
       clip-path="url(#clipPath93)" />
    <g
       id="g93">
      <text
         id="text93"
         xml:space="preserve"
         transform="matrix(0.87498281,0,0,0.87498281,44.502968,336.99394)"><tspan
           id="tspan93"
           style="font-variant:normal;font-weight:normal;font-size:12px;font-family:Arial;writing-mode:lr-tb;fill:#000000;fill-opacity:1;fill-rule:nonzero;stroke:none"
           x="0"
           y="0">OBI-Interface for</tspan></text>
    </g>
    <g
       id="g94">
      <text
         id="text94"
         xml:space="preserve"
         transform="matrix(0.87498281,0,0,0.87498281,39.253072,350.11869)"><tspan
           id="tspan94"
           style="font-variant:normal;font-weight:normal;font-size:12px;font-family:Arial;writing-mode:lr-tb;fill:#000000;fill-opacity:1;fill-rule:nonzero;stroke:none"
           x="0"
           dx="0 0 0 0 -0.66210926"
           y="0">iDMA configuration</tspan></text>
    </g>
    <g
       id="g95">
      <text
         id="text95"
         xml:space="preserve"
         transform="matrix(0.87498281,0,0,0.87498281,37.216002,512.86549)"><tspan
           id="tspan95"
           style="font-variant:normal;font-weight:normal;font-size:12px;font-family:Arial;writing-mode:lr-tb;fill:#000000;fill-opacity:1;fill-rule:nonzero;stroke:none"
           x="0"
           y="0">Manager OBI-Interface:</tspan></text>
    </g>
    <g
       id="g96">
      <text
         id="text96"
         xml:space="preserve"
         transform="matrix(0.87498281,0,0,0.87498281,74.853935,525.99023)"><tspan
           id="tspan96"
           style="font-variant:normal;font-weight:normal;font-size:12px;font-family:Arial;writing-mode:lr-tb;fill:#000000;fill-opacity:1;fill-rule:nonzero;stroke:none"
           x="0"
           y="0">Data-In</tspan></text>
    </g>
    <g
       id="g97">
      <text
         id="text97"
         xml:space="preserve"
         transform="matrix(0.87498281,0,0,0.87498281,53.266468,186.4969)"><tspan
           id="tspan97"
           style="font-variant:normal;font-weight:normal;font-size:12px;font-family:Arial;writing-mode:lr-tb;fill:#000000;fill-opacity:1;fill-rule:nonzero;stroke:none"
           x="0"
           y="0">OBI-Interface for</tspan></text>
    </g>
    <g
       id="g98">
      <text
         id="text98"
         xml:space="preserve"
         transform="matrix(0.87498281,0,0,0.87498281,47.907198,199.62164)"><tspan
           id="tspan98"
           style="font-variant:normal;font-weight:normal;font-size:12px;font-family:Arial;writing-mode:lr-tb;fill:#000000;fill-opacity:1;fill-rule:nonzero;stroke:none"
           x="0"
           dx="0 0 0 0 -0.44531199"
           y="0">PJDL configuration</tspan></text>
    </g>
    <path
       id="path98"
       d="M 172.75999,-69 H 130"
       style="fill:none;stroke:#000000;stroke-width:2;stroke-linecap:butt;stroke-linejoin:miter;stroke-miterlimit:10;stroke-dasharray:none;stroke-opacity:1"
       transform="matrix(0.87498281,0,0,0.87498281,30.380199,239.87085)"
       clip-path="url(#clipPath99)" />
    <path
       id="path100"
       d="m 180.75999,-69 -8,4 v -8 z"
       style="fill:#000000;fill-opacity:1;fill-rule:nonzero;stroke:#000000;stroke-width:2;stroke-linecap:butt;stroke-linejoin:miter;stroke-miterlimit:10;stroke-dasharray:none;stroke-opacity:1"
       transform="matrix(0.87498281,0,0,0.87498281,30.380199,239.87085)"
       clip-path="url(#clipPath101)" />
    <path
       id="path102"
       d="m 183.63,-45.330002 -23.63,0.03 -19.77,0.479999"
       style="fill:none;stroke:#000000;stroke-width:2;stroke-linecap:butt;stroke-linejoin:miter;stroke-miterlimit:10;stroke-dasharray:none;stroke-opacity:1"
       transform="matrix(0.87498281,0,0,0.87498281,30.380199,239.87085)"
       clip-path="url(#clipPath103)" />
    <path
       id="path104"
       d="m 132.24,-44.630001 7.9,-4.189999 0.19,8 z"
       style="fill:#000000;fill-opacity:1;fill-rule:nonzero;stroke:#000000;stroke-width:2;stroke-linecap:butt;stroke-linejoin:miter;stroke-miterlimit:10;stroke-dasharray:none;stroke-opacity:1"
       transform="matrix(0.87498281,0,0,0.87498281,30.380199,239.87085)"
       clip-path="url(#clipPath105)" />
    <g
       id="g105">
      <text
         id="text105"
         xml:space="preserve"
         transform="matrix(0.87498281,0,0,0.87498281,302.45884,43.874701)"><tspan
           id="tspan105"
           style="font-variant:normal;font-weight:normal;font-size:18px;font-family:Arial;writing-mode:lr-tb;fill:#000000;fill-opacity:1;fill-rule:nonzero;stroke:none"
           x="0"
           y="0">pjon_en_o</tspan></text>
    </g>
    <path
       id="path106"
       d="m 200,320.64001 -35,0.46 -25.77,-0.79001"
       style="fill:none;stroke:#000000;stroke-width:2;stroke-linecap:butt;stroke-linejoin:miter;stroke-miterlimit:10;stroke-dasharray:none;stroke-opacity:1"
       transform="matrix(0.87498281,0,0,0.87498281,30.380199,239.87085)"
       clip-path="url(#clipPath107)" />
    <path
       id="path108"
       d="m 131.23,320.07001 8.12001,-3.76001 -0.24001,8 z"
       style="fill:#000000;fill-opacity:1;fill-rule:nonzero;stroke:#000000;stroke-width:2;stroke-linecap:butt;stroke-linejoin:miter;stroke-miterlimit:10;stroke-dasharray:none;stroke-opacity:1"
       transform="matrix(0.87498281,0,0,0.87498281,30.380199,239.87085)"
       clip-path="url(#clipPath109)" />
    <path
       id="path110"
       d="M 190.75999,360.26999 166.5,360.60001 131,360"
       style="fill:none;stroke:#000000;stroke-width:2;stroke-linecap:butt;stroke-linejoin:miter;stroke-miterlimit:10;stroke-dasharray:none;stroke-opacity:1"
       transform="matrix(0.87498281,0,0,0.87498281,30.380199,239.87085)"
       clip-path="url(#clipPath111)" />
    <path
       id="path112"
       d="m 198.75999,360.17001 -7.93998,4.09998 -0.11,-8 z"
       style="fill:#000000;fill-opacity:1;fill-rule:nonzero;stroke:#000000;stroke-width:2;stroke-linecap:butt;stroke-linejoin:miter;stroke-miterlimit:10;stroke-dasharray:none;stroke-opacity:1"
       transform="matrix(0.87498281,0,0,0.87498281,30.380199,239.87085)"
       clip-path="url(#clipPath113)" />
    <path
       id="path114"
       d="M 200,380.63 165,381.10001 139.23,380.31"
       style="fill:none;stroke:#000000;stroke-width:2;stroke-linecap:butt;stroke-linejoin:miter;stroke-miterlimit:10;stroke-dasharray:none;stroke-opacity:1"
       transform="matrix(0.87498281,0,0,0.87498281,30.380199,239.87085)"
       clip-path="url(#clipPath115)" />
    <path
       id="path116"
       d="m 131.23,380.06 8.12001,-3.75 -0.24001,8 z"
       style="fill:#000000;fill-opacity:1;fill-rule:nonzero;stroke:#000000;stroke-width:2;stroke-linecap:butt;stroke-linejoin:miter;stroke-miterlimit:10;stroke-dasharray:none;stroke-opacity:1"
       transform="matrix(0.87498281,0,0,0.87498281,30.380199,239.87085)"
       clip-path="url(#clipPath117)" />
    <g
       id="g117">
      <text
         id="text117"
         xml:space="preserve"
         transform="matrix(0.87498281,0,0,0.87498281,37.216002,567.11442)"><tspan
           id="tspan117"
           style="font-variant:normal;font-weight:normal;font-size:12px;font-family:Arial;writing-mode:lr-tb;fill:#000000;fill-opacity:1;fill-rule:nonzero;stroke:none"
           x="0"
           y="0">Manager OBI-Interface:</tspan></text>
    </g>
    <g
       id="g118">
      <text
         id="text118"
         xml:space="preserve"
         transform="matrix(0.87498281,0,0,0.87498281,70.766124,580.23916)"><tspan
           id="tspan118"
           style="font-variant:normal;font-weight:normal;font-size:12px;font-family:Arial;writing-mode:lr-tb;fill:#000000;fill-opacity:1;fill-rule:nonzero;stroke:none"
           x="0"
           y="0">Data-Out</tspan></text>
    </g>
  </g>
</svg>
