<?xml version="1.0" encoding="UTF-8" standalone="no"?>
<!-- Created with Inkscape (http://www.inkscape.org/) -->

<svg
   version="1.1"
   id="svg1"
   width="410.72998"
   height="374.60312"
   viewBox="0 0 410.73001 374.60313"
   xmlns="http://www.w3.org/2000/svg"
   xmlns:svg="http://www.w3.org/2000/svg">
  <defs
     id="defs1" />
  <rect
     style="fill:#ffffff;fill-opacity:1;stroke:none;stroke-width:2.73305"
     id="rect1"
     width="409.72217"
     height="374.60312"
     x="4.8236266e-06"
     y="0" />
  <g
     id="g1"
     transform="translate(-342.14817,-437.51326)">
    <path
       id="path777"
       d="m 349.926,608.527 c -8.781,-0.629 -39.75,-3.519 -44.68,-4.168 -18.305,-2.41 -30.988,-6.988 -39.246,-14.164 -6.254,-5.433 -9.047,-11.062 -9.355,-18.851 -0.243,-6.106 0.8,-11.004 3.828,-18.012 l 1.308,-3.031 -0.531,-1.332 c -0.289,-0.735 -0.527,-1.778 -0.523,-2.321 0,-1.89 2.64,-3.398 8.195,-4.683 l 2.25,-0.52 0.164,-4.035 c 0.195,-4.828 0.551,-5.664 2.801,-6.566 1.34,-0.535 1.855,-0.571 5.761,-0.379 2.36,0.113 4.399,0.195 4.532,0.18 0.136,-0.012 0.281,-0.649 0.328,-1.411 0.195,-3.23 0.738,-6.269 1.265,-7.078 0.313,-0.476 1.161,-1.129 1.891,-1.449 1.188,-0.519 1.574,-0.547 3.703,-0.277 1.309,0.164 3.809,0.699 5.555,1.187 1.746,0.488 3.281,0.781 3.414,0.653 0.129,-0.133 0.406,-1.29 0.613,-2.567 0.594,-3.68 1.012,-5.148 1.821,-6.437 0.964,-1.524 2.585,-2.266 4.523,-2.071 1.488,0.153 5.258,1.696 8.926,3.657 1.222,0.656 2.324,1.132 2.449,1.062 0.125,-0.07 0.785,-1.859 1.469,-3.98 1.754,-5.446 3.269,-7.118 6.156,-6.797 1.742,0.195 3.238,0.89 7.605,3.551 1.938,1.183 3.633,2.046 3.766,1.925 0.133,-0.121 0.742,-1.484 1.359,-3.023 1.454,-3.652 1.872,-4.348 3.254,-5.445 2.473,-1.965 5.559,-1.043 12.328,3.683 1.481,1.031 2.797,1.754 2.946,1.617 0.144,-0.14 0.793,-1.496 1.437,-3.019 2.094,-4.938 3.473,-6.395 6.059,-6.399 2.16,0 4.566,1.356 8.664,4.887 2.793,2.41 3.965,3.242 4.391,3.121 0.316,-0.09 1.21,-0.332 1.988,-0.535 l 1.41,-0.371 -0.109,-1.504 c -0.145,-1.996 0.351,-3.23 1.804,-4.512 1.746,-1.539 3.836,-2.261 7.59,-2.625 1.789,-0.172 3.305,-0.347 3.371,-0.39 0.067,-0.043 -0.222,-2.067 -0.644,-4.489 l -0.762,-4.41 -1.777,-0.812 c -2.012,-0.922 -4.082,-2.625 -5.282,-4.348 -0.836,-1.195 -1.093,-1.305 -3.871,-1.621 -2.062,-0.238 -6.246,-1.277 -11.797,-2.934 l -4.402,-1.316 -3.031,1.723 c -1.668,0.949 -4.535,2.75 -6.367,4.004 -13.004,8.894 -17.985,11.457 -23.223,11.941 -2.105,0.195 -5.492,-0.395 -6.836,-1.191 -0.625,-0.372 -0.976,-0.325 -3.363,0.464 -1.469,0.485 -3.399,1.012 -4.289,1.168 -3.641,0.645 -9.367,0.098 -11.36,-1.082 -1.093,-0.648 -1.992,-2.156 -1.992,-3.343 -0.004,-1.696 1.246,-3.426 3.715,-5.141 2.867,-1.992 14.301,-8.949 19.191,-11.676 2.079,-1.16 3.696,-2.23 3.594,-2.379 -0.098,-0.148 -0.789,-0.269 -1.527,-0.269 -2.164,0 -6.621,-0.809 -8.141,-1.473 -1.719,-0.754 -2.691,-1.93 -2.691,-3.262 0,-1.304 0.875,-2.285 3.058,-3.414 6.098,-3.156 17.512,-13.172 30.762,-26.992 9.152,-9.547 19.277,-18.516 25.649,-22.723 5.015,-3.312 6.121,-4.199 7.402,-5.933 1.476,-2.004 2.562,-4.922 2.562,-6.891 v -1.383 l -3.019,-0.191 c -5.707,-0.363 -10.481,-1.937 -12.008,-3.965 -0.953,-1.265 -0.922,-2.66 0.109,-4.961 0.817,-1.816 0.829,-1.918 0.446,-4.633 -0.946,-6.761 -0.883,-16.035 0.144,-21.101 3.16,-15.582 14.582,-27.68 31.024,-32.86 9.39,-2.957 20.289,-3.277 29.515,-0.863 8.965,2.344 17.985,7.992 22.965,14.375 1.406,1.801 4.113,6.344 4.113,6.899 0,0.144 0.7,0.425 1.555,0.625 2.277,0.527 3.715,1.539 4.676,3.285 1.527,2.769 0.918,5.078 -2.016,7.656 -1.226,1.074 -1.644,1.656 -1.644,2.277 v 0.836 l 4.812,-0.097 c 5.711,-0.114 5.93,-0.02 6.442,2.828 0.468,2.586 0.398,3.199 -0.485,4.148 -0.718,0.774 -0.804,1.129 -0.808,3.297 0,2.449 -0.774,6.067 -1.778,8.344 l -0.531,1.195 1.109,1.246 c 1.622,1.817 2.711,3.649 3.618,6.059 0.992,2.637 1.047,4.422 0.156,5.226 -0.949,0.86 -2.285,0.715 -5.07,-0.543 -1.821,-0.828 -2.653,-1.062 -3.125,-0.882 -0.352,0.132 -1.493,0.457 -2.536,0.718 l -1.886,0.481 0.187,1.64 c 0.262,2.223 1.809,6.84 4.098,12.196 3.746,8.761 4.613,12.633 4.629,20.578 0.012,5.055 -0.09,6.219 -0.742,8.871 -2.059,8.352 -6.34,15.5 -13.051,21.77 -5.528,5.164 -11.055,8.902 -17.844,12.07 -3.656,1.707 -3.684,1.726 -4.387,3.293 -0.867,1.929 -2.019,3.332 -3.597,4.375 -0.657,0.437 -1.313,0.883 -1.457,0.992 -0.145,0.105 0.269,1.824 0.918,3.812 l 1.183,3.618 5.188,0.347 c 2.855,0.188 6.265,0.551 7.582,0.805 6.215,1.203 9.601,3.477 10.445,7.012 0.277,1.168 0.805,1.34 3.324,1.094 1.996,-0.192 2.063,-0.227 3.262,-1.696 2.797,-3.426 7.191,-6.129 11.188,-6.879 2.312,-0.437 7.144,-0.211 9.05,0.422 1.399,0.461 1.418,0.461 2.961,-0.398 2.578,-1.438 4.578,-1.903 8.18,-1.903 3.082,0 3.344,0.051 5.652,1.082 4.383,1.961 7.301,5.481 8.508,10.266 0.285,1.121 0.559,2.18 0.613,2.356 0.133,0.417 6.114,1.109 14.848,1.718 l 2.637,0.18 0.644,-1.141 c 2.422,-4.3 7.574,-6.164 13.391,-4.843 1.976,0.449 2,0.445 3.172,-0.274 1.758,-1.078 3.215,-1.418 5.601,-1.297 5.508,0.285 8.407,3.364 8.953,9.512 0.18,1.988 0.286,2.238 1.575,3.602 3.425,3.636 4.129,7.718 1.914,11.128 -0.992,1.524 -1.852,2.227 -4.188,3.411 -1.855,0.941 -1.926,1.019 -2.027,2.277 -0.57,7.012 -6.922,13.254 -17.801,17.5 -8.137,3.176 -24.641,7.215 -44.953,11.004 -17.219,3.215 -19.965,3.785 -21.82,4.539 -1.903,0.769 -1.875,0.68 -1.004,3.601 0.523,1.77 0.89,1.989 4.34,2.59 8.074,1.407 14.082,4.383 16.046,7.953 1,1.817 1.067,3.145 0.196,3.86 -0.649,0.531 -0.934,0.531 -4.75,-0.02 l -1.367,-0.195 0.48,1.047 c 0.762,1.648 0.633,2.957 -0.363,3.664 -0.465,0.332 -1.18,0.601 -1.59,0.601 -0.598,0 -3.777,-0.789 -6.524,-1.621 -0.347,-0.105 -0.402,0.106 -0.25,0.973 0.305,1.723 -0.261,3.133 -1.433,3.574 -0.91,0.34 -1.484,0.227 -6.828,-1.312 -3.207,-0.93 -6.774,-1.946 -7.922,-2.262 -3.473,-0.961 -6.738,-2.516 -8.34,-3.969 -1.594,-1.445 -3.453,-4.074 -6.312,-8.922 -0.989,-1.671 -1.907,-3.101 -2.047,-3.179 -0.137,-0.078 -1.535,0.047 -3.106,0.273 -1.57,0.227 -4.426,0.57 -6.344,0.762 l -3.484,0.351 0.168,0.754 c 0.094,0.418 0.84,2.035 1.66,3.594 1.238,2.363 1.629,2.863 2.352,3.004 5.562,1.086 10.816,3.074 13.265,5.023 1.793,1.43 3.473,4.192 3.727,6.125 0.168,1.278 0.094,1.524 -0.645,2.192 -0.968,0.879 -1.73,0.926 -4.582,0.277 -1.148,-0.262 -2.136,-0.426 -2.199,-0.363 -0.062,0.059 0.024,0.941 0.199,1.957 0.368,2.156 0.004,3.281 -1.226,3.789 -1.215,0.5 -1.496,0.437 -4.813,-1.125 -1.703,-0.801 -3.293,-1.457 -3.539,-1.457 -0.324,0 -0.449,0.402 -0.449,1.441 0,1.813 -0.437,2.688 -1.664,3.344 -1.234,0.66 -2.367,0.461 -4.723,-0.832 -0.996,-0.547 -3.636,-1.789 -5.871,-2.762 -2.23,-0.968 -4.937,-2.359 -6.011,-3.093 -4.59,-3.121 -10.028,-10.411 -13.075,-17.516 l -0.902,-2.109 -3.406,0.015 c -1.871,0.012 -3.692,0.129 -4.047,0.258 -0.578,0.215 -0.547,0.262 0.32,0.457 3.653,0.832 5.567,3.18 3.563,4.371 -0.653,0.387 -1.078,0.41 -2.633,0.153 -1.016,-0.172 -2.207,-0.313 -2.645,-0.313 -0.746,0 -0.761,0.035 -0.265,0.527 0.289,0.293 0.691,0.954 0.89,1.469 0.305,0.793 0.27,1.031 -0.207,1.508 -0.851,0.851 -1.957,0.727 -9.015,-1.004 -10.668,-2.621 -13.207,-4.012 -14.469,-7.934 -0.539,-1.675 -0.492,-1.656 -4.309,-1.984 -2.09,-0.176 -2.09,-0.176 -3.215,0.891 -0.617,0.59 -1.535,1.304 -2.039,1.59 -0.8,0.449 -0.843,0.535 -0.324,0.668 6.035,1.55 8.707,2.679 10.992,4.652 1.411,1.219 2.614,3.394 2.844,5.144 0.164,1.254 0.09,1.493 -0.683,2.192 -0.883,0.801 -1.594,0.844 -4.2,0.254 -0.597,-0.133 -0.64,0.004 -0.64,2.019 0,3.719 -1.289,4.199 -5.95,2.231 l -2.73,-1.157 -0.199,1.586 c -0.215,1.739 -0.832,2.801 -2.043,3.516 -0.996,0.594 -2.184,0.375 -4.172,-0.77 -2.324,-1.332 -4.734,-2.363 -10.141,-4.335 -10.656,-3.891 -13.726,-5.911 -14.996,-9.864 -0.988,-3.066 -0.191,-6.433 2.473,-10.496 0.699,-1.066 1.273,-2.012 1.273,-2.101 0,-0.657 -10.609,-0.723 -14.629,-0.09 -5.859,0.922 -11.921,3.351 -15.64,6.265 l -1.395,1.094 0.965,0.926 c 2.43,2.328 6.699,4.703 13.34,7.43 16.195,6.644 23.348,9.796 28.93,12.746 6.593,3.488 13.484,8.668 14.796,11.125 0.633,1.179 0.657,1.398 0.262,2.5 -0.238,0.664 -0.793,1.449 -1.234,1.738 -1.012,0.664 -4.274,0.836 -9.164,0.484 z m 4.289,-4.269 c 0.91,-0.524 -6.399,-5.504 -12.805,-8.727 -5.652,-2.843 -19.039,-8.765 -19.812,-8.765 -0.098,0 0.199,0.402 0.656,0.894 1.34,1.442 0.992,3.18 -0.633,3.18 -0.379,0 -2.059,-0.578 -3.726,-1.285 -4.735,-2.004 -6.211,-2.309 -11.305,-2.332 l -4.442,-0.02 -1.343,-1.324 c -0.739,-0.731 -1.899,-1.945 -2.578,-2.703 -0.676,-0.758 -1.825,-1.735 -2.547,-2.168 -1.219,-0.731 -1.621,-0.797 -5.563,-0.934 -5.148,-0.176 -5.058,-0.121 -7.289,-4.289 -1.758,-3.289 -2.711,-4.18 -5.777,-5.406 -2.785,-1.113 -3.137,-2.492 -0.903,-3.539 1.422,-0.664 3.164,-0.531 5.313,0.398 2.769,1.203 4.973,3.633 6.121,6.77 l 0.52,1.414 2.625,0.004 c 5.738,0.004 8.722,1.523 12.226,6.215 l 0.84,1.125 4.184,0.058 c 2.3,0.031 4.179,0.012 4.179,-0.035 0,-0.047 -0.902,-0.496 -2.008,-0.996 -8.964,-4.059 -15.382,-9.57 -17.804,-15.289 -1.133,-2.676 -1.414,-7.055 -0.614,-9.582 1.079,-3.391 2.79,-5.156 3.965,-4.09 0.442,0.395 0.457,0.746 0.125,2.719 -0.836,4.957 -0.304,8.324 1.774,11.301 1.023,1.464 0.84,1.507 4.711,-1.094 3.152,-2.113 4.609,-2.797 8.754,-4.102 5.683,-1.793 7.843,-2.082 15.484,-2.09 3.754,0 6.828,-0.07 6.828,-0.148 0,-0.082 -0.437,-0.734 -0.969,-1.457 -2.515,-3.399 -2.5,-7.32 0.032,-10.656 1.058,-1.387 1.683,-1.688 2.605,-1.243 0.711,0.344 0.707,0.672 -0.027,4.454 -0.645,3.289 0.55,5.207 4.304,6.929 2.129,0.973 2.403,1.223 2.407,2.203 0.011,0.891 -0.805,2.286 -3.637,6.219 -5.133,7.133 -5.453,9.02 -2.035,12.031 1.887,1.664 4.551,2.926 12.429,5.899 2.918,1.098 6.028,2.41 6.911,2.91 1.191,0.676 1.632,0.809 1.707,0.508 0.211,-0.856 -1.239,-2.684 -3.36,-4.242 -2.539,-1.864 -3.015,-2.934 -1.582,-3.524 1.246,-0.515 4.129,0.321 8.746,2.535 2.149,1.032 3.993,1.871 4.098,1.871 1.035,0 -1.402,-2.472 -3.273,-3.328 -1.399,-0.636 -1.872,-1.734 -1.168,-2.707 0.476,-0.66 0.66,-0.707 2.109,-0.531 0.875,0.106 2.738,0.559 4.148,1.008 1.407,0.453 2.559,0.719 2.559,0.594 0,-0.813 -4.387,-2.629 -7.996,-3.317 -1.184,-0.226 -4.356,-0.504 -7.055,-0.617 -4.308,-0.184 -4.949,-0.273 -5.226,-0.746 -0.578,-0.977 0.265,-1.645 4.609,-3.641 3.703,-1.703 4.586,-2.261 6.855,-4.3 3.622,-3.258 4.473,-4.895 4.473,-8.598 0,-2.535 -0.09,-2.926 -1.062,-4.727 -1.164,-2.156 -3.754,-4.867 -6.2,-6.496 -1.332,-0.883 -1.578,-1.195 -1.578,-1.996 0,-4.301 7.887,-0.387 11.383,5.649 1.406,2.425 2.117,4.949 2.113,7.464 -0.003,1.77 -0.535,4.594 -1.125,5.973 -0.171,0.41 0.094,0.516 1.668,0.68 1.028,0.105 3.137,0.383 4.684,0.613 6.207,0.93 15.996,1.457 24.73,1.332 l 3.75,-0.055 0.227,-1.671 c 0.344,-2.606 1.609,-5.868 3.039,-7.836 1.559,-2.153 5.758,-5.801 7.805,-6.786 1.847,-0.886 3.219,-0.617 3.383,0.664 0.086,0.661 -0.36,1.235 -2.59,3.34 -5.59,5.282 -7.102,7.864 -7.11,12.145 -0.004,4.101 1.426,7.613 5.59,13.687 3.836,5.594 5.637,7.086 12.93,10.688 l 4.418,2.183 v -0.914 c 0,-0.582 -0.41,-1.441 -1.125,-2.351 -1.199,-1.528 -1.434,-2.77 -0.633,-3.375 0.766,-0.574 3.285,0.066 7.469,1.89 4.035,1.766 4.164,1.649 1.32,-1.195 -1.394,-1.394 -1.59,-1.738 -1.504,-2.672 l 0.098,-1.066 1.93,0.035 c 1.183,0.02 3.089,0.383 4.929,0.926 2.653,0.781 2.934,0.82 2.43,0.316 -1.359,-1.359 -5.891,-3.137 -10.664,-4.179 -1.289,-0.282 -2.629,-0.723 -2.981,-0.985 -0.941,-0.703 -6.089,-10.449 -6.089,-11.535 0,-1 0.765,-1.777 3.238,-3.281 2.199,-1.336 4.898,-4.133 6.121,-6.34 0.598,-1.078 1.406,-2.149 1.797,-2.375 0.644,-0.383 0.777,-0.356 1.523,0.32 0.453,0.41 0.821,1.07 0.821,1.473 0,1.078 -0.899,3.32 -1.969,4.91 l -0.938,1.398 2.016,-0.187 c 3.527,-0.328 13.433,-1.875 17.926,-2.797 2.386,-0.492 7.593,-1.851 11.574,-3.023 5.906,-1.743 8.902,-2.43 16.367,-3.758 34.313,-6.102 52.41,-10.91 60.297,-16.02 4.074,-2.64 6.773,-6.015 7.418,-9.273 l 0.227,-1.137 -1.25,0.203 c -0.688,0.114 -2.239,0.364 -3.446,0.555 l -2.199,0.348 -0.773,2.007 c -0.872,2.254 -2.211,4.289 -3.645,5.536 -0.719,0.621 -1.371,0.867 -2.559,0.972 -1.539,0.133 -1.652,0.09 -3.199,-1.219 -0.879,-0.746 -1.941,-1.808 -2.355,-2.359 -0.418,-0.555 -0.848,-1.004 -0.957,-1.008 -0.11,0 -0.528,0.789 -0.93,1.754 -2.258,5.469 -5.793,6.09 -9.801,1.727 -0.656,-0.715 -1.289,-1.332 -1.406,-1.375 -0.117,-0.039 -0.621,0.773 -1.121,1.812 -2.219,4.606 -5.422,5.153 -9.035,1.539 -0.977,-0.976 -1.778,-1.918 -1.782,-2.09 0,-0.171 -0.546,0.59 -1.21,1.7 -1.52,2.519 -2.442,3.175 -4.536,3.203 -2.035,0.023 -2.964,-0.571 -4.839,-3.113 l -1.434,-1.942 -1.215,2.102 c -2.094,3.629 -4.16,4.738 -6.648,3.574 -0.953,-0.445 -2.969,-2.336 -3.563,-3.34 -0.195,-0.332 -0.461,-0.605 -0.586,-0.605 -0.129,0 -0.637,0.652 -1.133,1.453 -2.125,3.426 -5.328,3.929 -7.777,1.218 -0.351,-0.39 -1.371,-1.835 -2.262,-3.207 l -1.617,-2.496 -3.781,-0.511 c -4.699,-0.637 -7.367,-1.352 -10.649,-2.848 l -2.558,-1.168 -0.93,0.797 c -0.512,0.437 -1.355,1.351 -1.875,2.031 -0.519,0.676 -1.242,1.375 -1.609,1.555 -1.024,0.492 -1.735,-0.313 -1.664,-1.891 0.125,-2.972 3.426,-6.414 7.695,-8.019 2.828,-1.067 4.129,-1.133 4.66,-0.239 0.336,0.571 0.25,0.743 -0.793,1.559 -0.644,0.504 -1.172,1.059 -1.172,1.227 0,0.464 3.028,1.714 5.946,2.453 2.39,0.605 3.199,0.652 11.414,0.632 8.972,-0.019 9.687,-0.066 28.769,-1.824 5.125,-0.472 11.492,-1.008 14.141,-1.187 18.746,-1.27 32.691,-3.098 37.117,-4.86 2.817,-1.125 3.957,-2.429 3.926,-4.496 -0.02,-1.457 -0.438,-2.125 -2.535,-4.074 l -1.762,-1.633 -0.117,-2.66 c -0.141,-3.105 -0.504,-4.516 -1.52,-5.883 -1.129,-1.523 -3.754,-2.101 -5.324,-1.176 -0.344,0.204 -0.227,0.52 0.566,1.508 1.043,1.305 2.278,4.434 2.278,5.782 0,1.523 -1.492,1.957 -3.008,0.878 -0.469,-0.332 -1.414,-1.476 -2.105,-2.546 -2.036,-3.145 -3.911,-4.379 -6.879,-4.536 -5.254,-0.281 -7.672,2.164 -7.145,7.235 0.223,2.16 0.215,2.191 -0.613,2.531 -0.715,0.293 -0.973,0.258 -1.715,-0.226 -0.48,-0.317 -1.215,-1.192 -1.633,-1.942 l -0.758,-1.367 -2.136,-0.004 c -1.172,0 -6.907,-0.523 -12.743,-1.164 -5.836,-0.637 -11.168,-1.16 -11.851,-1.16 -1.125,0 -1.223,0.058 -1.055,0.644 0.488,1.696 -0.949,2.789 -2.476,1.883 -0.414,-0.246 -1.657,-2.023 -2.758,-3.945 -4.012,-7 -8.543,-9.93 -15.367,-9.93 -6.352,0 -11.715,4.035 -14.567,10.957 -1.012,2.457 -1.621,3.082 -2.867,2.949 -1.207,-0.129 -1.68,-1.214 -1.461,-3.367 l 0.188,-1.824 -5.457,0.074 -5.454,0.074 -0.332,1.168 c -0.753,2.645 -2.488,3.934 -5.289,3.934 -1.183,0 -2.25,-0.367 -5.476,-1.895 -3.114,-1.468 -9.36,-3.925 -9.985,-3.925 -0.054,0 -0.16,0.789 -0.234,1.75 -0.168,2.105 -0.855,3.074 -2.852,4.019 -1.246,0.594 -1.73,0.66 -3.878,0.524 l -2.454,-0.161 -0.195,1.082 c -0.246,1.372 -1.207,2.79 -2.344,3.461 -0.644,0.387 -1.492,0.524 -3.148,0.516 -2.469,-0.012 -4,-0.566 -7.566,-2.754 -2.59,-1.59 -6.692,-3.387 -8.918,-3.906 -2.262,-0.531 -7.016,-0.598 -9.469,-0.137 -0.938,0.176 -3.215,0.699 -5.055,1.164 -5.933,1.492 -6.586,1.309 -11.918,-3.379 -2.59,-2.273 -4.566,-3.632 -5.281,-3.632 -0.285,0 -1.434,2.199 -2.32,4.437 -2.735,6.895 -3.907,7.203 -10.536,2.762 -3,-2.004 -5.75,-3.551 -6.828,-3.84 -0.625,-0.164 -0.793,0.051 -1.648,2.082 -0.524,1.246 -1.27,3.148 -1.656,4.223 -1.082,2.988 -2.821,3.996 -5.383,3.117 -0.496,-0.168 -2.863,-1.41 -5.262,-2.758 -2.394,-1.344 -4.687,-2.484 -5.09,-2.527 -0.883,-0.094 -1.144,0.437 -2.633,5.418 -1.753,5.851 -3.121,6.546 -8.078,4.097 -4.211,-2.082 -7.082,-3.312 -8.16,-3.508 -0.949,-0.168 -1.008,-0.121 -1.371,1.086 -0.207,0.696 -0.582,2.731 -0.836,4.52 -0.555,3.945 -1.031,4.898 -2.664,5.34 -1.055,0.285 -1.844,0.179 -6.375,-0.86 -2.844,-0.656 -5.559,-1.187 -6.027,-1.187 h -0.856 l -0.019,2.398 c -0.028,4.364 -0.395,6.25 -1.375,7.137 -0.864,0.781 -0.922,0.789 -4.321,0.672 -1.898,-0.07 -4.461,-0.137 -5.699,-0.149 l -2.25,-0.015 0.117,4.219 c 0.157,5.464 0.383,5.195 -5.699,6.711 -2.535,0.628 -4.734,1.214 -4.879,1.296 -0.148,0.082 0.965,2.426 2.473,5.207 2.57,4.739 2.754,5.2 2.914,7.34 0.152,2.075 0.105,2.332 -0.523,2.844 -1.293,1.055 -2.137,0.406 -4.301,-3.293 l -1.938,-3.312 -1.066,2.992 c -1.891,5.293 -2.477,8.383 -2.274,12.051 0.805,14.48 13.582,23.828 38.805,28.378 5.59,1.012 14.75,2.067 26.516,3.055 4.773,0.399 11.066,0.93 13.984,1.18 11.922,1.008 13.504,1.094 14.094,0.754 z m -49.656,-65.145 c -0.832,-0.754 -0.371,-3.179 1.144,-6.015 1.402,-2.618 2.367,-3.528 4.047,-3.813 0.586,-0.101 3.191,0.102 5.789,0.445 2.598,0.344 4.758,0.586 4.805,0.536 0.047,-0.051 0.699,-1.368 1.449,-2.926 2.34,-4.863 3.918,-6.27 6.664,-5.93 1.578,0.195 5.531,1.77 7.578,3.016 0.746,0.457 1.527,0.922 1.735,1.039 0.242,0.137 0.976,-0.688 2.074,-2.34 1.836,-2.758 4.078,-5.121 5.476,-5.777 1.965,-0.918 4.121,-0.219 9.438,3.054 1.582,0.977 3.035,1.774 3.222,1.774 0.192,0 0.684,-0.426 1.102,-0.946 3.449,-4.304 6.941,-7.207 8.66,-7.195 1.879,0.016 5.067,1.828 9.543,5.43 1.258,1.012 2.403,1.836 2.543,1.836 0.145,0 1.824,-1.379 3.734,-3.067 3.821,-3.375 6.266,-4.707 8.036,-4.386 1.703,0.308 4.531,2.25 8.394,5.765 2.078,1.891 3.879,3.434 4.004,3.434 0.125,0 1.481,-0.719 3.016,-1.602 3.875,-2.218 6.234,-3.148 8.328,-3.269 1.512,-0.086 2.015,0.023 3.449,0.785 2.141,1.133 5.656,4.812 6.934,7.262 0.902,1.718 0.941,1.922 0.511,2.617 -0.941,1.519 -1.648,1.215 -5.863,-2.528 -2.152,-1.91 -4.226,-3.562 -4.613,-3.671 -0.785,-0.227 -2.996,0.695 -7.649,3.199 -3.738,2.008 -4.726,2.32 -5.914,1.875 -0.504,-0.188 -1.941,-1.442 -3.199,-2.785 -2.277,-2.434 -5.828,-5.325 -7.539,-6.137 -0.855,-0.41 -0.969,-0.383 -2.41,0.586 -0.832,0.555 -2.809,2.199 -4.395,3.648 -4.234,3.871 -5.054,3.957 -8.843,0.93 -3.051,-2.437 -5.414,-4.07 -6.844,-4.73 -1.219,-0.563 -1.281,-0.567 -1.922,-0.055 -0.363,0.293 -2.012,2.058 -3.66,3.926 -4.231,4.789 -4.672,4.867 -9.758,1.773 -1.328,-0.805 -3.371,-1.941 -4.547,-2.523 l -2.133,-1.063 -0.824,0.887 c -0.453,0.488 -1.641,2.094 -2.644,3.57 -3.551,5.242 -3.676,5.266 -10.747,2.098 -4.57,-2.047 -4.925,-2.16 -5.324,-1.676 -0.234,0.285 -1.101,2.051 -1.926,3.922 -0.828,1.875 -1.742,3.602 -2.031,3.84 -0.293,0.238 -1.179,0.59 -1.972,0.781 -1.266,0.305 -1.934,0.254 -5.383,-0.418 -5.68,-1.105 -5.504,-1.137 -6.723,1.203 -1.613,3.098 -3.676,4.649 -4.812,3.621 z m 171.957,-16.652 c -1.407,-0.414 -2.504,-1.016 -3.75,-2.047 -3.286,-2.715 -4.543,-5.625 -4.328,-10.019 0.109,-2.301 0.277,-2.954 1.175,-4.606 1.289,-2.371 3.5,-4.418 5.836,-5.41 2.586,-1.098 6.141,-1.07 8.879,0.074 4.637,1.93 7.102,6.082 6.817,11.473 -0.11,2.09 -0.317,2.902 -1.141,4.5 -2.684,5.191 -8.121,7.625 -13.488,6.035 z m 5.871,-4.242 c 2.789,-1.199 4.508,-4.301 4.242,-7.649 -0.184,-2.308 -1.008,-3.898 -2.777,-5.347 -2.059,-1.684 -5.325,-1.852 -7.747,-0.403 -4.726,2.832 -4.085,11.098 1.036,13.387 1.347,0.598 3.863,0.605 5.246,0.008 z m -2.274,-2.137 c -1.656,-0.629 -2.734,-2.527 -2.73,-4.816 0.004,-3.043 1.555,-5.094 3.851,-5.094 1.711,0 2.348,0.324 3.258,1.66 1.457,2.133 0.797,6.688 -1.133,7.789 -0.933,0.535 -2.476,0.754 -3.246,0.461 z m 58.461,-3.773 c -1.449,-0.801 -2.047,-1.723 -2.047,-3.161 0,-3.23 4.192,-3.668 6.078,-0.632 0.801,1.289 0.883,3.242 0.168,3.89 -0.703,0.637 -2.964,0.582 -4.199,-0.097 z m -66.98,68.929 c -0.379,-0.48 -0.793,-0.875 -0.926,-0.875 -0.133,0 -0.848,-0.468 -1.586,-1.039 -1.016,-0.785 -1.344,-1.254 -1.344,-1.898 0,-1.817 2.571,-1.766 9.188,0.176 1.902,0.558 3.512,0.964 3.578,0.906 0.148,-0.133 -1.258,-1.188 -3.234,-2.43 -1.184,-0.742 -1.497,-1.109 -1.497,-1.758 0,-0.453 0.172,-0.98 0.387,-1.172 0.606,-0.546 2.84,-0.41 5.762,0.356 1.48,0.387 2.73,0.668 2.781,0.621 0.457,-0.414 -8.019,-3.051 -11.824,-3.676 -3.215,-0.531 -3.969,-1.078 -5.168,-3.73 l -1.027,-2.274 -1.965,1.082 c -1.078,0.594 -4.063,2.102 -6.625,3.352 -2.563,1.246 -4.707,2.301 -4.762,2.34 -0.227,0.152 1.93,3.66 2.809,4.566 1.379,1.422 3.675,2.449 9.988,4.461 3.094,0.984 5.746,1.809 5.891,1.828 0.144,0.02 -0.047,-0.355 -0.426,-0.836 z m 8.336,-44.328 c 0.308,-0.664 0.66,-1.566 0.781,-2.008 l 0.219,-0.797 h -2.258 c -1.242,0 -2.254,0.047 -2.254,0.106 0,0.301 1.445,3.027 1.894,3.574 0.645,0.777 0.907,0.637 1.618,-0.875 z m 11.566,-0.894 c 0.547,-1.192 0.992,-2.27 0.992,-2.403 0,-0.234 -4.277,-0.183 -5.07,0.063 -0.301,0.09 -0.184,0.531 0.441,1.66 1.121,2.016 2.043,3.176 2.375,2.988 0.145,-0.082 0.715,-1.121 1.262,-2.308 z m 12.465,-1.18 c 0.566,-1.274 0.969,-2.371 0.898,-2.434 -0.07,-0.062 -1.363,-0.019 -2.875,0.09 l -2.746,0.207 1.328,2.317 c 0.934,1.621 1.489,2.289 1.852,2.226 0.309,-0.054 0.93,-1.015 1.543,-2.406 z m 11.051,1.269 c 0.199,-0.343 0.703,-1.519 1.117,-2.621 l 0.75,-2 -1.668,0.024 c -0.918,0.015 -2.363,0.113 -3.215,0.219 l -1.551,0.191 1.344,1.891 c 2.195,3.093 2.586,3.371 3.223,2.293 z m 12.859,-3.664 c 0.375,-1.027 0.621,-1.921 0.547,-1.992 -0.164,-0.148 -5.109,0.391 -5.316,0.578 -0.161,0.145 1.628,2.61 2.617,3.602 0.613,0.617 0.695,0.633 1.066,0.176 0.219,-0.274 0.707,-1.336 1.086,-2.364 z m 11.848,-0.156 c 0.324,-0.68 0.676,-1.672 0.785,-2.207 l 0.195,-0.969 -2.488,0.203 c -1.367,0.114 -2.547,0.254 -2.617,0.313 -0.328,0.27 2.699,3.898 3.258,3.898 0.156,0 0.546,-0.558 0.867,-1.238 z M 414.504,510.949 c 0.742,-1.75 -0.856,-3.551 -5.145,-5.789 -2.718,-1.418 -2.859,-1.543 -2.859,-2.488 0,-2.176 1.945,-1.828 11.609,2.086 4.875,1.972 5.59,2.086 5.59,0.871 0,-2.02 -2.867,-3.586 -9.008,-4.926 -2.207,-0.48 -5.421,-1.07 -7.148,-1.308 -1.727,-0.239 -3.363,-0.602 -3.637,-0.805 -0.863,-0.649 -1.418,-1.926 -1.918,-4.414 -0.265,-1.324 -0.707,-3.356 -0.98,-4.516 l -0.496,-2.109 h -1.426 c -1.738,0 -1.734,-0.031 -0.617,4.73 0.972,4.145 1.027,6.008 0.207,6.926 -0.528,0.59 -0.988,0.688 -4.098,0.875 -5.066,0.301 -8.168,1.168 -8.168,2.281 0,1.082 0.844,1.317 4.457,1.235 2.219,-0.051 4.336,0.09 5.996,0.394 2.914,0.539 8.008,2.617 11.129,4.535 2.684,1.657 5.129,2.871 5.789,2.875 0.289,0.004 0.617,-0.199 0.723,-0.453 z m 30.351,-6.16 c 0.165,-1.543 -0.863,-2.473 -4.718,-4.254 -3.821,-1.769 -4.325,-2.152 -4.168,-3.148 0.242,-1.543 5.187,-0.789 11.679,1.781 4.188,1.656 4.801,1.812 5.418,1.375 1.086,-0.773 -0.945,-2.664 -3.988,-3.711 -2.836,-0.977 -6.058,-1.453 -11.406,-1.691 -2.836,-0.125 -5.473,-0.379 -5.856,-0.567 -0.429,-0.207 -0.836,-0.82 -1.046,-1.57 -0.188,-0.68 -0.844,-2.774 -1.458,-4.656 -0.613,-1.883 -1.113,-3.477 -1.113,-3.547 0,-0.11 -2.301,0.137 -2.488,0.269 -0.043,0.028 0.152,1.551 0.434,3.379 0.582,3.797 0.472,5.836 -0.36,6.672 -0.457,0.453 -0.992,0.578 -2.539,0.582 -1.777,0.004 -5.461,0.594 -5.836,0.938 -0.312,0.281 4.586,1.687 6.449,1.847 4.614,0.395 10.731,2.453 15.993,5.371 1.988,1.106 3.906,1.981 4.257,1.946 0.473,-0.051 0.672,-0.321 0.746,-1.016 z m 60.727,-2.672 c -0.43,-2.902 -2.98,-6.179 -5.84,-7.512 -1.859,-0.863 -4.914,-1.031 -7.027,-0.386 l -1.219,0.367 2.184,2.094 c 1.203,1.152 2.738,2.961 3.414,4.023 l 1.234,1.926 3.106,0.187 c 2.683,0.164 3.625,0.258 4.195,0.414 0.066,0.02 0.047,-0.48 -0.047,-1.109 z m -94.238,-7.539 c 1.765,-1.402 4.699,-2.305 8.34,-2.558 l 2.73,-0.188 v -0.844 c 0,-1.402 -0.976,-5.277 -1.527,-6.054 -0.282,-0.399 -1.032,-1.297 -1.664,-1.996 l -1.149,-1.27 -3.969,0.16 -3.968,0.164 -1.657,1.41 c -0.91,0.774 -2.199,1.707 -2.863,2.075 -0.664,0.367 -1.203,0.757 -1.203,0.863 0,0.105 0.274,0.848 0.606,1.648 0.335,0.801 0.847,2.567 1.14,3.93 0.774,3.617 0.883,3.781 2.457,3.781 1.074,0 1.582,-0.207 2.727,-1.121 z m -92.032,-4.68 c 1.336,-0.308 3.93,-1.203 5.754,-1.984 4.024,-1.719 12.524,-6.059 15.336,-7.832 1.125,-0.707 2.121,-1.219 2.215,-1.137 0.414,0.375 -1.89,3.692 -3.781,5.438 -1.859,1.715 -6.695,4.914 -7.434,4.914 -0.152,0 -0.281,0.133 -0.281,0.293 0,0.562 2.953,0.285 5.09,-0.477 2.902,-1.039 6.559,-3.226 13.074,-7.812 3.004,-2.117 6.731,-4.61 8.277,-5.535 1.547,-0.926 2.813,-1.805 2.813,-1.95 0,-0.144 -0.687,-0.543 -1.527,-0.882 -1.375,-0.563 -2.352,-0.645 -9.883,-0.848 -4.598,-0.125 -8.574,-0.262 -8.84,-0.309 -0.266,-0.043 -1.93,0.746 -3.699,1.758 -25.168,14.418 -26.633,15.297 -26.43,15.863 0.395,1.098 5.531,1.375 9.316,0.5 z m 82.821,-7.457 c 2.242,-0.925 5.937,-4.312 7.359,-6.742 1.102,-1.883 1.903,-2.527 2.774,-2.226 0.386,0.136 0.504,0.613 0.504,2.035 v 1.863 h 2.253 c 6.629,0 16.321,-2.301 23.946,-5.683 15.469,-6.864 26.258,-18.317 29.465,-31.286 0.984,-3.984 1.07,-12.355 0.168,-16.277 -0.754,-3.266 -2.239,-7.605 -3.829,-11.199 -2.32,-5.231 -3.921,-9.891 -4.574,-13.313 l -0.207,-1.09 -3.277,-0.003 c -4.086,0 -6.981,-0.411 -9.098,-1.286 -3.512,-1.445 -4.137,-3.918 -2.273,-8.961 1.543,-4.164 2.765,-6.265 4.492,-7.707 1.344,-1.121 2.133,-1.445 5.043,-2.062 l 1.125,-0.242 -1.402,-0.84 c -1.977,-1.188 -4.879,-1.36 -6.418,-0.383 -0.903,0.574 -1.243,1.156 -2.184,3.723 -0.613,1.672 -1.57,3.769 -2.129,4.656 -2.746,4.359 -7.68,6.711 -14.051,6.699 -5.109,-0.008 -9.09,-1.363 -12.566,-4.273 -3.07,-2.574 -4.789,-6.383 -4.801,-10.633 -0.004,-1.731 -0.078,-1.965 -0.613,-1.965 -0.793,0 -6.649,1.086 -7.988,1.484 l -1.047,0.309 -0.012,5.141 c -0.012,5.699 -0.488,8.89 -1.633,10.968 -1.086,1.965 -3.015,3.438 -5.488,4.18 l -2.098,0.633 -0.176,2.391 c -0.097,1.343 -0.531,3.394 -0.988,4.687 l -0.816,2.293 2.367,-0.18 c 6.227,-0.476 14.449,1.571 19.973,4.973 2.636,1.625 6.847,5.687 8.425,8.137 4.774,7.398 4.864,17.019 0.235,25.359 -3.957,7.133 -11.117,13.07 -21.235,17.617 -8.656,3.887 -15.89,5.864 -27.304,7.465 -6.145,0.859 -6.891,1.004 -6.582,1.242 0.398,0.309 11.129,3.461 13.015,3.825 3.395,0.648 3.828,0.597 4.594,-0.582 0.367,-0.559 0.879,-1.02 1.141,-1.02 0.914,0 2.027,1.332 2.918,3.492 2.117,5.141 7.41,7.09 12.992,4.781 z m 27.48,-2.402 c 0.867,-0.351 1.508,-0.703 1.426,-0.777 -0.141,-0.129 -6.133,1.144 -6.859,1.457 -0.176,0.074 0.621,0.097 1.769,0.051 1.278,-0.055 2.703,-0.34 3.664,-0.731 z m -67.058,-12.418 c 15.289,-1.008 25.414,-3.133 35.359,-7.43 12.078,-5.214 19.516,-12.101 22.449,-20.789 0.789,-2.34 0.883,-3.07 0.887,-6.84 0,-3.816 -0.078,-4.421 -0.84,-6.351 -4.301,-10.887 -18.816,-17.402 -30.965,-13.899 -5.574,1.61 -10.375,4.825 -20.035,13.415 -8.562,7.613 -9.035,8.144 -9.035,10.109 0,2.758 1.766,4.184 4.895,3.945 1.918,-0.14 6.132,-1.793 8.769,-3.437 0.793,-0.496 1.441,-0.821 1.441,-0.727 0,0.094 -0.304,0.715 -0.679,1.383 -2.739,4.852 -2.434,7.957 0.91,9.297 1.223,0.488 1.918,0.57 3.769,0.441 2.84,-0.195 5.024,-0.968 8.45,-2.992 1.476,-0.867 2.734,-1.582 2.797,-1.582 0.062,0 -0.485,1.063 -1.215,2.359 -1.184,2.098 -1.332,2.582 -1.332,4.387 0,1.996 0.015,2.039 1.324,3.145 0.73,0.613 1.887,1.257 2.574,1.429 3.039,0.766 7.527,0.032 10.391,-1.703 0.789,-0.476 1.492,-0.812 1.566,-0.746 0.074,0.067 -0.238,0.695 -0.691,1.399 -1.86,2.871 -5.516,4.863 -9.324,5.082 -4.176,0.242 -7.129,-1.078 -9.395,-4.2 l -1.305,-1.796 -1.59,1.144 c -5.371,3.883 -18.011,9.988 -26.753,12.922 -2.86,0.961 -5.204,1.84 -5.207,1.953 0,0.113 1.261,0.25 2.808,0.305 1.547,0.051 2.926,0.121 3.063,0.156 0.14,0.031 3.25,-0.137 6.914,-0.379 z m -23.395,-2.492 c 6.52,-1.031 12.774,-2.66 18.32,-4.774 5.547,-2.113 18.243,-8.515 18.551,-9.355 0.055,-0.145 -0.601,-0.484 -1.453,-0.758 -2.238,-0.719 -3.617,-1.648 -4.785,-3.222 -0.566,-0.762 -1.113,-1.387 -1.223,-1.395 -0.105,-0.004 -2.246,1.418 -4.758,3.168 -10.855,7.555 -18.054,11.219 -23.804,12.121 -2.668,0.418 -4.375,0.301 -6.031,-0.41 -0.797,-0.34 -1,-0.246 -3.547,1.633 -1.485,1.097 -3.059,2.211 -3.496,2.472 -0.438,0.262 -0.704,0.559 -0.598,0.664 0.875,0.825 7.148,0.754 12.824,-0.144 z m 2.27,-8.594 c 4.324,-1.164 13.097,-6.078 19.734,-11.058 l 2.238,-1.68 -1.433,-0.332 c -2.348,-0.547 -3.52,-1.258 -4.563,-2.774 -0.543,-0.789 -1.097,-1.437 -1.23,-1.437 -0.137,0 -2.684,2.324 -5.66,5.164 -2.977,2.84 -7.211,6.836 -9.411,8.875 l -4.003,3.711 h 1.293 c 0.71,0 2.074,-0.211 3.035,-0.469 z m 119.047,-62.262 c 0.726,-0.25 0.632,-0.695 -0.145,-0.695 -0.363,0 -2.984,-0.469 -5.828,-1.039 -3.774,-0.758 -5.27,-0.953 -5.527,-0.719 -0.571,0.516 0.461,1.852 1.734,2.25 1.152,0.36 8.859,0.52 9.766,0.203 z m -68.34,-0.41 c 2.812,-0.328 3.949,-0.879 4.867,-2.359 0.742,-1.195 1.359,-4.695 0.637,-3.602 -1.231,1.856 -3.262,3.098 -5.977,3.649 -2.488,0.508 -6.867,0.363 -10.137,-0.332 -2.824,-0.598 -2.957,-0.602 -3.367,-0.098 -1.621,2.008 6.559,3.613 13.977,2.742 z m 80.101,-1.258 c 0,-0.543 -2.269,-3.671 -3.711,-5.113 -2.824,-2.828 -8.203,-5.262 -11.636,-5.262 -2.039,0 -3.289,0.52 -4.395,1.832 -0.808,0.961 -2.269,3.668 -2.062,3.829 0.058,0.047 2.82,0.562 6.136,1.148 6.496,1.149 10.379,2.082 13.325,3.199 2.234,0.848 2.343,0.864 2.343,0.364 z M 431.98,380.117 c 1.458,-4.359 2.653,-8.023 2.649,-8.144 0,-0.118 -0.574,-0.219 -1.274,-0.219 -0.89,0 -1.367,0.156 -1.582,0.516 -0.355,0.601 -5.179,15.011 -5.179,15.472 0,0.168 0.613,0.305 1.363,0.305 l 1.367,-0.004 z m -39.562,6.895 c 1.953,-1.297 2.144,-2.078 3.004,-12.278 0.578,-6.894 1.832,-9.933 5.43,-13.175 2.574,-2.321 5.574,-3.711 12.097,-5.606 10.766,-3.121 22.449,-4.789 35.75,-5.101 l 8.125,-0.188 -1.605,-2.363 c -4.848,-7.129 -13.317,-12.422 -23.485,-14.684 -2.668,-0.59 -3.863,-0.679 -9.48,-0.691 -5.035,-0.008 -7.024,0.101 -9.164,0.515 -5.793,1.121 -11.707,3.36 -16.555,6.266 -2.957,1.773 -8.664,6.934 -10.539,9.523 -3.379,4.672 -5.75,10.047 -6.883,15.606 -0.695,3.418 -0.769,13.414 -0.14,18.324 l 0.441,3.402 2.613,0.59 c 3.629,0.813 9.059,0.739 10.391,-0.14 z m 74.957,-8.2 c 1.121,-3.664 1.637,-5.957 1.645,-7.292 l 0.003,-1.254 -1.203,0.089 c -1.187,0.09 -1.203,0.106 -1.593,1.836 -0.215,0.961 -0.723,2.993 -1.125,4.512 -0.399,1.52 -0.731,2.863 -0.735,2.985 -0.004,0.21 1.711,1.312 2.117,1.355 0.11,0.012 0.508,-0.992 0.891,-2.231 z m -56.301,-9.363 c 3.145,-0.469 7.16,-0.988 8.93,-1.16 4.758,-0.461 23.691,-1.695 31.98,-2.09 3.981,-0.187 7.371,-0.453 7.536,-0.59 0.183,-0.152 -0.067,-0.949 -0.641,-2.035 l -0.941,-1.785 -4.825,0.195 c -11.383,0.461 -21.57,1.61 -34.074,3.844 -9.762,1.742 -15.043,3.145 -15.75,4.18 -0.336,0.492 1.746,0.344 7.785,-0.559 z m -1.699,-5.836 c 14.859,-3.543 31.93,-5.593 47.031,-5.648 8.703,-0.031 8.903,-0.07 7.387,-1.442 -1.328,-1.207 -4.031,-1.5 -13.574,-1.476 -7.078,0.015 -9.688,0.141 -14.145,0.676 -12.219,1.465 -22.437,3.816 -28.164,6.48 -2.164,1.008 -4.39,2.57 -3.664,2.57 0.149,0 2.453,-0.523 5.129,-1.16 z"
       style="fill:#000000;fill-opacity:1;fill-rule:nonzero;stroke:none"
       transform="scale(1.3333333)" />
  </g>
</svg>
